<svg xmlns="http://www.w3.org/2000/svg" xmlns:xlink="http://www.w3.org/1999/xlink" width="1440" zoomAndPan="magnify" viewBox="0 0 1080 277.499997" height="370" preserveAspectRatio="xMidYMid meet" version="1.0"><defs><g/></defs><g fill="rgb(89.7995%, 96.469116%, 98.039246%)" fill-opacity="0.4"><g transform="translate(39.61795, 201.246715)"><g><path d="M 46.644531 -69.210938 C 46.191406 -70.117188 45.886719 -70.574219 45.585938 -71.179688 C 43.3125 -75.875 41.042969 -80.417969 38.617188 -85.113281 C 36.496094 -89.050781 35.136719 -93.289062 33.316406 -97.378906 C 32.105469 -100.558594 30.589844 -103.738281 29.230469 -107.070312 C 28.773438 -108.132812 27.867188 -108.738281 26.652344 -108.738281 C 25.140625 -108.738281 23.777344 -108.738281 22.261719 -108.738281 C 17.871094 -108.433594 13.328125 -108.132812 8.933594 -107.523438 C 8.027344 -107.375 7.421875 -106.917969 7.421875 -105.859375 C 7.269531 -105.554688 7.269531 -105.253906 7.269531 -104.800781 C 7.269531 -95.710938 7.421875 -86.625 6.964844 -77.386719 C 6.511719 -70.269531 6.816406 -63 6.816406 -55.882812 C 6.816406 -51.792969 6.964844 -47.554688 7.117188 -43.464844 C 7.269531 -37.40625 6.664062 -31.5 6.664062 -25.441406 C 6.511719 -17.871094 6.359375 -10.148438 6.210938 -2.574219 C 6.058594 -1.664062 6.210938 -0.757812 6.664062 0.152344 C 7.117188 0.910156 7.722656 1.363281 8.632812 1.363281 C 11.054688 1.363281 13.476562 1.210938 15.75 1.210938 C 16.808594 1.210938 17.871094 1.210938 18.777344 1.363281 C 21.203125 1.363281 23.625 1.664062 25.898438 1.664062 C 27.714844 1.664062 28.621094 0.605469 28.773438 -1.058594 C 28.773438 -2.726562 28.773438 -4.242188 28.773438 -5.753906 C 28.925781 -17.71875 29.078125 -29.683594 29.230469 -41.648438 C 29.230469 -47.402344 29.230469 -53.15625 29.230469 -58.761719 C 29.230469 -59.214844 29.078125 -59.667969 29.53125 -60.273438 C 29.984375 -58.910156 30.589844 -57.851562 30.894531 -56.640625 C 32.710938 -51.1875 35.285156 -46.191406 37.710938 -41.042969 C 39.074219 -38.164062 40.433594 -35.285156 41.949219 -32.410156 C 42.707031 -30.894531 43.464844 -29.378906 44.675781 -27.867188 C 45.585938 -26.804688 47.855469 -26.652344 48.765625 -28.015625 C 49.21875 -28.621094 49.824219 -29.378906 50.128906 -30.136719 C 51.492188 -32.710938 52.855469 -35.589844 54.21875 -38.316406 C 54.972656 -39.980469 56.035156 -41.648438 56.792969 -43.3125 C 57.546875 -44.675781 58.003906 -46.191406 58.609375 -47.554688 C 59.367188 -49.371094 60.273438 -51.035156 60.878906 -52.703125 C 61.789062 -54.972656 62.546875 -57.09375 63.453125 -59.214844 C 63.453125 -59.515625 63.757812 -59.820312 63.910156 -60.125 C 64.0625 -59.820312 64.210938 -59.515625 64.210938 -59.214844 C 64.210938 -46.796875 64.210938 -34.527344 64.363281 -22.109375 C 64.363281 -15.296875 64.515625 -8.632812 64.667969 -1.816406 C 64.667969 0 66.179688 1.515625 68 1.664062 C 68.90625 1.664062 69.96875 1.664062 70.875 1.515625 C 73.90625 1.515625 76.78125 0.910156 79.660156 1.363281 C 80.566406 1.515625 81.324219 1.515625 82.234375 1.363281 C 83.144531 1.210938 84.203125 0.757812 85.113281 0.304688 C 85.867188 -0.152344 86.019531 -1.058594 86.019531 -1.96875 C 85.867188 -8.027344 85.867188 -14.234375 85.71875 -20.292969 C 85.566406 -25.140625 85.261719 -30.136719 85.261719 -34.984375 C 85.414062 -47.402344 85.566406 -59.820312 85.71875 -72.390625 C 85.71875 -80.566406 86.171875 -88.746094 85.261719 -96.925781 C 84.960938 -99.347656 84.960938 -101.769531 84.355469 -104.042969 C 83.75 -106.769531 81.78125 -107.675781 79.660156 -107.980469 C 75.417969 -108.585938 71.332031 -108.738281 67.089844 -108.738281 C 65.574219 -108.738281 64.515625 -108.132812 63.910156 -106.769531 C 61.789062 -102.679688 60.273438 -98.136719 58.457031 -93.894531 C 57.546875 -91.320312 56.488281 -88.746094 55.277344 -86.324219 C 52.703125 -81.175781 50.128906 -76.175781 47.554688 -71.027344 C 47.402344 -70.574219 47.097656 -69.96875 46.644531 -69.210938 Z M 46.644531 -69.210938 "/></g></g></g><g fill="rgb(89.7995%, 96.469116%, 98.039246%)" fill-opacity="0.4"><g transform="translate(131.685841, 201.246715)"><g><path d="M 46.644531 -69.210938 C 46.191406 -70.117188 45.886719 -70.574219 45.585938 -71.179688 C 43.3125 -75.875 41.042969 -80.417969 38.617188 -85.113281 C 36.496094 -89.050781 35.136719 -93.289062 33.316406 -97.378906 C 32.105469 -100.558594 30.589844 -103.738281 29.230469 -107.070312 C 28.773438 -108.132812 27.867188 -108.738281 26.652344 -108.738281 C 25.140625 -108.738281 23.777344 -108.738281 22.261719 -108.738281 C 17.871094 -108.433594 13.328125 -108.132812 8.933594 -107.523438 C 8.027344 -107.375 7.421875 -106.917969 7.421875 -105.859375 C 7.269531 -105.554688 7.269531 -105.253906 7.269531 -104.800781 C 7.269531 -95.710938 7.421875 -86.625 6.964844 -77.386719 C 6.511719 -70.269531 6.816406 -63 6.816406 -55.882812 C 6.816406 -51.792969 6.964844 -47.554688 7.117188 -43.464844 C 7.269531 -37.40625 6.664062 -31.5 6.664062 -25.441406 C 6.511719 -17.871094 6.359375 -10.148438 6.210938 -2.574219 C 6.058594 -1.664062 6.210938 -0.757812 6.664062 0.152344 C 7.117188 0.910156 7.722656 1.363281 8.632812 1.363281 C 11.054688 1.363281 13.476562 1.210938 15.75 1.210938 C 16.808594 1.210938 17.871094 1.210938 18.777344 1.363281 C 21.203125 1.363281 23.625 1.664062 25.898438 1.664062 C 27.714844 1.664062 28.621094 0.605469 28.773438 -1.058594 C 28.773438 -2.726562 28.773438 -4.242188 28.773438 -5.753906 C 28.925781 -17.71875 29.078125 -29.683594 29.230469 -41.648438 C 29.230469 -47.402344 29.230469 -53.15625 29.230469 -58.761719 C 29.230469 -59.214844 29.078125 -59.667969 29.53125 -60.273438 C 29.984375 -58.910156 30.589844 -57.851562 30.894531 -56.640625 C 32.710938 -51.1875 35.285156 -46.191406 37.710938 -41.042969 C 39.074219 -38.164062 40.433594 -35.285156 41.949219 -32.410156 C 42.707031 -30.894531 43.464844 -29.378906 44.675781 -27.867188 C 45.585938 -26.804688 47.855469 -26.652344 48.765625 -28.015625 C 49.21875 -28.621094 49.824219 -29.378906 50.128906 -30.136719 C 51.492188 -32.710938 52.855469 -35.589844 54.21875 -38.316406 C 54.972656 -39.980469 56.035156 -41.648438 56.792969 -43.3125 C 57.546875 -44.675781 58.003906 -46.191406 58.609375 -47.554688 C 59.367188 -49.371094 60.273438 -51.035156 60.878906 -52.703125 C 61.789062 -54.972656 62.546875 -57.09375 63.453125 -59.214844 C 63.453125 -59.515625 63.757812 -59.820312 63.910156 -60.125 C 64.0625 -59.820312 64.210938 -59.515625 64.210938 -59.214844 C 64.210938 -46.796875 64.210938 -34.527344 64.363281 -22.109375 C 64.363281 -15.296875 64.515625 -8.632812 64.667969 -1.816406 C 64.667969 0 66.179688 1.515625 68 1.664062 C 68.90625 1.664062 69.96875 1.664062 70.875 1.515625 C 73.90625 1.515625 76.78125 0.910156 79.660156 1.363281 C 80.566406 1.515625 81.324219 1.515625 82.234375 1.363281 C 83.144531 1.210938 84.203125 0.757812 85.113281 0.304688 C 85.867188 -0.152344 86.019531 -1.058594 86.019531 -1.96875 C 85.867188 -8.027344 85.867188 -14.234375 85.71875 -20.292969 C 85.566406 -25.140625 85.261719 -30.136719 85.261719 -34.984375 C 85.414062 -47.402344 85.566406 -59.820312 85.71875 -72.390625 C 85.71875 -80.566406 86.171875 -88.746094 85.261719 -96.925781 C 84.960938 -99.347656 84.960938 -101.769531 84.355469 -104.042969 C 83.75 -106.769531 81.78125 -107.675781 79.660156 -107.980469 C 75.417969 -108.585938 71.332031 -108.738281 67.089844 -108.738281 C 65.574219 -108.738281 64.515625 -108.132812 63.910156 -106.769531 C 61.789062 -102.679688 60.273438 -98.136719 58.457031 -93.894531 C 57.546875 -91.320312 56.488281 -88.746094 55.277344 -86.324219 C 52.703125 -81.175781 50.128906 -76.175781 47.554688 -71.027344 C 47.402344 -70.574219 47.097656 -69.96875 46.644531 -69.210938 Z M 46.644531 -69.210938 "/></g></g></g><g fill="rgb(89.7995%, 96.469116%, 98.039246%)" fill-opacity="0.4"><g transform="translate(223.753731, 201.246715)"><g/></g></g><g fill="rgb(89.7995%, 96.469116%, 98.039246%)" fill-opacity="0.4"><g transform="translate(254.039213, 201.246715)"><g><path d="M 39.074219 1.816406 C 43.617188 1.816406 48.007812 1.363281 52.25 -0.757812 C 53.15625 -1.363281 54.066406 -1.816406 54.972656 -2.273438 C 58.003906 -4.390625 61.183594 -6.359375 63.453125 -9.390625 C 65.574219 -12.265625 67.695312 -14.992188 69.058594 -18.324219 C 71.9375 -24.835938 72.691406 -31.804688 71.332031 -38.921875 C 71.027344 -40.738281 70.269531 -42.707031 69.664062 -44.523438 C 69.210938 -45.585938 68.605469 -46.492188 68.148438 -47.554688 C 67.089844 -49.671875 65.421875 -51.339844 63.605469 -52.703125 C 62.847656 -53.15625 62.394531 -53.914062 61.636719 -54.519531 C 60.730469 -55.277344 59.667969 -56.035156 58.761719 -56.941406 C 56.941406 -58.457031 54.972656 -59.367188 52.855469 -60.425781 C 50.734375 -61.636719 48.460938 -62.546875 46.34375 -63.605469 C 45.734375 -63.910156 44.980469 -64.0625 44.375 -64.515625 C 42.101562 -65.878906 39.527344 -67.242188 37.253906 -68.753906 C 35.742188 -69.664062 34.378906 -70.722656 33.316406 -72.085938 C 32.257812 -73.300781 31.652344 -74.660156 31.5 -76.175781 C 31.347656 -77.386719 31.5 -78.75 31.804688 -79.960938 C 32.257812 -81.324219 33.316406 -82.535156 34.527344 -83.445312 C 35.742188 -84.503906 37.105469 -85.261719 38.617188 -85.261719 C 41.796875 -85.566406 45.128906 -85.566406 48.3125 -84.65625 C 50.128906 -84.203125 51.640625 -83.445312 52.855469 -82.082031 C 53.761719 -81.175781 54.972656 -80.417969 56.035156 -79.507812 C 56.335938 -79.355469 56.640625 -79.054688 56.941406 -79.054688 C 58.457031 -79.054688 59.820312 -79.207031 60.878906 -80.265625 C 61.941406 -81.324219 63 -82.386719 63.910156 -83.445312 C 65.421875 -85.414062 66.9375 -87.230469 68.453125 -89.199219 C 69.511719 -90.5625 69.664062 -91.925781 68.90625 -93.441406 C 68 -94.957031 66.785156 -96.320312 65.574219 -97.679688 C 63.910156 -99.953125 61.789062 -101.46875 59.515625 -102.980469 C 56.792969 -105.101562 53.761719 -106.3125 50.582031 -107.222656 C 48.007812 -107.980469 45.433594 -108.28125 42.859375 -108.28125 C 38.316406 -108.132812 33.921875 -107.675781 29.835938 -105.554688 C 28.925781 -105.101562 28.015625 -104.648438 27.109375 -104.042969 C 23.929688 -102.074219 20.898438 -99.953125 18.476562 -96.925781 C 16.355469 -94.046875 14.234375 -91.320312 12.871094 -87.988281 C 9.996094 -81.476562 9.238281 -74.511719 10.601562 -67.542969 C 11.054688 -65.121094 11.964844 -62.546875 13.023438 -60.273438 C 13.933594 -58.304688 14.992188 -56.488281 16.660156 -54.972656 C 18.171875 -53.761719 19.535156 -52.398438 21.050781 -51.1875 C 22.867188 -49.824219 24.683594 -48.613281 26.503906 -47.25 C 27.410156 -46.644531 28.320312 -46.191406 29.378906 -45.734375 C 30.894531 -44.980469 32.558594 -43.917969 34.226562 -43.3125 C 36.953125 -42.40625 39.222656 -40.890625 41.648438 -39.527344 C 43.3125 -38.617188 44.828125 -37.558594 46.34375 -36.496094 C 48.160156 -35.285156 49.371094 -33.773438 50.128906 -31.804688 C 51.1875 -28.621094 50.429688 -25.746094 48.160156 -23.625 C 46.492188 -21.960938 44.375 -21.203125 42.101562 -20.445312 C 40.285156 -19.992188 38.617188 -19.992188 36.800781 -20.597656 C 34.832031 -21.203125 33.015625 -21.960938 31.046875 -22.714844 C 30.289062 -23.019531 29.683594 -23.472656 28.925781 -23.929688 C 26.652344 -25.140625 25.140625 -27.261719 23.324219 -29.078125 C 22.714844 -29.984375 22.109375 -30.894531 21.355469 -31.804688 C 20.898438 -32.257812 20.445312 -33.015625 19.535156 -32.710938 C 18.628906 -32.558594 17.871094 -32.257812 17.113281 -31.5 C 16.054688 -30.441406 14.992188 -29.378906 13.78125 -28.472656 C 11.359375 -26.804688 9.238281 -24.535156 6.964844 -22.714844 C 6.210938 -22.109375 5.90625 -21.203125 6.210938 -20.292969 C 6.664062 -19.234375 6.964844 -18.023438 7.570312 -17.113281 C 9.539062 -13.78125 11.660156 -10.601562 14.539062 -8.027344 C 15.449219 -7.117188 16.355469 -6.359375 17.417969 -5.601562 C 18.171875 -4.996094 19.234375 -4.390625 20.140625 -3.785156 C 22.867188 -1.816406 25.898438 -0.453125 29.230469 0.453125 C 32.410156 1.210938 35.589844 1.96875 39.074219 1.816406 Z M 39.074219 1.816406 "/></g></g></g><g fill="rgb(89.7995%, 96.469116%, 98.039246%)" fill-opacity="0.4"><g transform="translate(332.175766, 201.246715)"><g><path d="M 40.738281 -48.613281 C 40.890625 -48.613281 40.890625 -48.613281 40.890625 -48.613281 C 40.890625 -49.066406 40.890625 -49.523438 41.042969 -49.976562 C 41.34375 -57.246094 41.648438 -64.515625 41.796875 -71.9375 C 41.949219 -76.328125 41.796875 -80.871094 41.796875 -85.414062 C 41.796875 -85.867188 41.796875 -86.324219 41.796875 -86.625 C 41.796875 -87.230469 41.949219 -87.382812 42.554688 -87.382812 C 43.3125 -87.382812 44.222656 -87.382812 44.980469 -87.382812 C 49.066406 -87.535156 53.308594 -87.988281 57.546875 -87.535156 C 57.851562 -87.535156 58.15625 -87.535156 58.457031 -87.535156 C 59.667969 -87.6875 60.125 -88.292969 60.273438 -89.503906 C 60.273438 -90.5625 60.273438 -91.625 60.273438 -92.53125 C 60.425781 -96.773438 60.878906 -100.863281 60.730469 -104.949219 C 60.730469 -106.617188 60.273438 -106.917969 58.761719 -106.917969 C 56.035156 -106.917969 53.308594 -106.769531 50.582031 -106.769531 C 39.222656 -106.617188 28.015625 -106.617188 16.660156 -107.375 C 13.023438 -107.523438 9.238281 -107.375 5.601562 -107.222656 C 4.390625 -107.070312 3.785156 -106.617188 3.632812 -105.253906 C 3.179688 -100.863281 3.027344 -96.46875 3.027344 -92.078125 C 3.027344 -90.714844 3.179688 -89.503906 3.332031 -88.292969 C 3.484375 -87.535156 3.9375 -87.082031 4.542969 -87.082031 C 4.996094 -87.082031 5.453125 -87.082031 5.90625 -87.082031 C 11.054688 -87.535156 16.203125 -87.382812 21.203125 -87.382812 C 22.109375 -87.382812 22.109375 -87.382812 22.109375 -86.472656 C 22.261719 -84.503906 22.261719 -82.535156 22.261719 -80.417969 C 22.261719 -75.269531 22.261719 -70.117188 21.960938 -64.816406 C 21.503906 -57.246094 21.203125 -49.671875 21.203125 -42.253906 C 21.050781 -33.921875 21.355469 -25.746094 21.355469 -17.566406 C 21.355469 -12.417969 21.355469 -7.269531 21.355469 -2.121094 C 21.355469 -0.304688 22.414062 0.757812 24.230469 1.058594 C 24.988281 1.210938 25.898438 1.210938 26.804688 1.363281 C 30.742188 1.96875 34.527344 1.664062 38.316406 0.910156 C 39.222656 0.605469 39.980469 0 39.980469 -1.058594 C 40.132812 -5.90625 40.433594 -10.753906 40.433594 -15.597656 C 40.585938 -26.652344 40.738281 -37.558594 40.738281 -48.613281 Z M 40.738281 -48.613281 "/></g></g></g><g fill="rgb(89.7995%, 96.469116%, 98.039246%)" fill-opacity="0.4"><g transform="translate(396.078152, 201.246715)"><g><path d="M 74.660156 1.363281 C 75.722656 1.664062 76.78125 1.363281 77.84375 1.058594 C 79.207031 0.757812 80.417969 -0.910156 80.265625 -2.273438 C 79.960938 -3.332031 79.660156 -4.390625 79.355469 -5.453125 C 78.902344 -7.117188 78.449219 -8.632812 77.992188 -10.148438 C 77.539062 -12.117188 77.238281 -14.085938 76.78125 -15.902344 C 76.480469 -17.265625 76.175781 -18.476562 75.875 -19.839844 C 75.570312 -22.109375 75.117188 -24.535156 74.660156 -26.804688 C 73.753906 -30.742188 72.691406 -34.832031 71.632812 -38.769531 C 69.664062 -46.039062 67.695312 -53.460938 65.878906 -60.730469 C 64.96875 -63.910156 64.0625 -67.242188 63.152344 -70.269531 C 62.09375 -74.207031 60.730469 -77.992188 59.515625 -81.78125 C 58.910156 -84.203125 58.15625 -86.472656 57.699219 -88.898438 C 57.09375 -91.625 56.640625 -94.5 55.578125 -97.074219 C 55.429688 -97.53125 55.429688 -97.984375 55.277344 -98.4375 C 54.824219 -100.40625 54.367188 -102.375 53.761719 -104.34375 C 53.308594 -106.011719 52.550781 -106.769531 50.734375 -106.617188 C 49.824219 -106.464844 48.917969 -106.617188 48.007812 -106.769531 C 46.949219 -106.917969 45.886719 -106.769531 44.828125 -106.617188 C 42.40625 -106.3125 39.828125 -105.859375 37.253906 -105.554688 C 35.890625 -105.40625 34.527344 -105.253906 33.167969 -105.101562 C 32.410156 -105.101562 31.804688 -104.648438 31.5 -103.890625 C 30.894531 -102.832031 30.289062 -101.769531 29.984375 -100.710938 C 28.925781 -97.074219 28.167969 -93.59375 27.261719 -89.957031 C 26.957031 -88.746094 26.804688 -87.535156 26.351562 -86.472656 C 24.683594 -80.566406 23.019531 -74.660156 21.355469 -68.753906 C 19.992188 -64.210938 18.628906 -59.820312 17.265625 -55.277344 C 15.902344 -50.28125 14.386719 -45.433594 13.023438 -40.585938 C 12.117188 -37.105469 11.359375 -33.621094 10.753906 -30.136719 C 10.148438 -26.804688 9.390625 -23.625 8.480469 -20.445312 C 7.722656 -18.324219 6.964844 -16.054688 6.210938 -13.78125 C 5.300781 -10.296875 4.390625 -6.664062 3.332031 -3.179688 C 2.878906 -1.515625 3.179688 -0.304688 4.695312 0.605469 C 5.148438 0.910156 5.601562 1.210938 6.210938 1.210938 C 7.269531 1.363281 8.328125 1.515625 9.539062 1.515625 C 13.476562 1.363281 17.417969 1.058594 21.355469 0.910156 C 22.566406 0.910156 23.625 0.757812 24.835938 0.605469 C 25.746094 0.605469 26.503906 0 26.804688 -0.910156 C 27.261719 -1.96875 27.714844 -3.027344 28.167969 -4.089844 C 29.078125 -5.90625 29.53125 -7.875 29.835938 -9.84375 C 30.136719 -11.964844 30.136719 -11.507812 31.953125 -11.507812 C 34.679688 -11.507812 37.40625 -11.507812 40.132812 -11.660156 C 42.253906 -11.8125 44.523438 -12.117188 46.796875 -12.265625 C 48.917969 -12.417969 51.035156 -12.417969 53.15625 -12.417969 C 53.761719 -12.570312 54.066406 -12.265625 54.21875 -11.660156 C 54.21875 -10.753906 54.519531 -9.84375 54.671875 -8.933594 C 55.277344 -5.753906 56.640625 -2.726562 58.003906 0.304688 C 58.304688 0.757812 58.761719 1.210938 59.367188 1.515625 C 60.578125 2.421875 61.941406 2.421875 63.304688 2.273438 C 65.273438 2.121094 67.089844 1.96875 68.90625 1.816406 C 69.511719 1.816406 70.117188 1.664062 70.722656 1.664062 C 72.085938 1.515625 73.449219 1.515625 74.660156 1.363281 Z M 41.949219 -65.273438 C 42.40625 -64.210938 42.554688 -63 43.011719 -61.941406 C 43.765625 -59.667969 44.523438 -57.546875 45.28125 -55.429688 C 46.644531 -51.492188 47.554688 -47.25 48.460938 -43.160156 C 48.765625 -41.796875 49.371094 -40.585938 49.671875 -39.222656 C 49.824219 -38.921875 49.824219 -38.769531 49.976562 -38.464844 C 50.429688 -36.953125 50.429688 -36.953125 48.765625 -36.800781 C 45.886719 -36.347656 43.011719 -36.347656 40.132812 -36.042969 C 38.921875 -36.042969 37.859375 -36.042969 36.648438 -36.042969 C 35.890625 -36.042969 35.742188 -36.042969 35.890625 -36.953125 C 36.347656 -39.828125 36.800781 -42.707031 37.40625 -45.585938 C 38.464844 -51.1875 39.679688 -56.792969 40.890625 -62.242188 C 41.042969 -63.304688 41.34375 -64.363281 41.648438 -65.273438 C 41.796875 -65.273438 41.949219 -65.273438 41.949219 -65.273438 Z M 41.949219 -65.273438 "/></g></g></g><g fill="rgb(89.7995%, 96.469116%, 98.039246%)" fill-opacity="0.4"><g transform="translate(479.514676, 201.246715)"><g><path d="M 41.34375 1.664062 C 42.859375 1.664062 45.28125 1.515625 47.554688 1.363281 C 49.371094 1.210938 51.1875 0.910156 52.855469 0.757812 C 56.1875 0.453125 58.910156 -0.757812 61.183594 -3.179688 C 66.03125 -8.179688 68.605469 -14.234375 69.210938 -21.050781 C 69.511719 -23.324219 69.816406 -25.59375 69.96875 -27.867188 C 70.269531 -33.46875 70.117188 -39.074219 68.300781 -44.523438 C 67.089844 -48.160156 65.121094 -51.339844 62.546875 -54.066406 C 62.09375 -54.671875 61.636719 -54.972656 61.03125 -55.429688 C 60.125 -56.1875 59.972656 -56.1875 60.878906 -56.941406 C 61.03125 -57.09375 61.335938 -57.398438 61.636719 -57.546875 C 64.0625 -58.761719 65.574219 -60.878906 66.785156 -63.304688 C 68 -66.332031 68.90625 -69.511719 69.058594 -72.84375 C 69.210938 -74.660156 69.210938 -76.480469 69.363281 -78.449219 C 69.511719 -82.839844 68.605469 -87.230469 67.242188 -91.472656 C 66.03125 -94.5 64.667969 -97.53125 62.546875 -100.257812 C 61.183594 -102.226562 59.820312 -104.195312 57.546875 -105.554688 C 55.730469 -106.769531 53.609375 -107.523438 51.339844 -107.980469 C 50.28125 -108.132812 49.21875 -108.28125 48.3125 -108.433594 C 45.28125 -109.191406 42.101562 -109.039062 39.074219 -109.039062 C 35.890625 -109.039062 32.863281 -108.886719 29.683594 -108.738281 C 28.773438 -108.585938 28.015625 -108.433594 27.261719 -108.433594 C 26.351562 -108.28125 25.59375 -108.132812 24.835938 -108.132812 C 22.566406 -108.28125 20.140625 -108.28125 17.871094 -108.433594 C 16.960938 -108.433594 16.054688 -108.585938 15.144531 -108.585938 C 12.570312 -108.433594 10.148438 -108.132812 7.875 -106.617188 C 6.816406 -106.011719 6.359375 -105.101562 6.359375 -103.890625 C 6.511719 -103.285156 6.511719 -102.832031 6.359375 -102.226562 C 6.058594 -98.136719 6.210938 -94.046875 6.511719 -90.109375 C 6.816406 -88.292969 6.816406 -86.625 6.664062 -84.808594 C 6.511719 -82.234375 6.359375 -79.507812 6.511719 -76.78125 C 6.664062 -70.117188 6.964844 -63.304688 7.117188 -56.640625 C 7.269531 -46.796875 7.421875 -36.953125 7.421875 -27.109375 C 7.421875 -21.503906 7.269531 -15.902344 6.964844 -10.148438 C 6.816406 -7.421875 7.269531 -4.542969 7.421875 -1.816406 C 7.570312 -0.152344 8.632812 0.910156 10.449219 0.910156 C 12.570312 0.910156 14.691406 1.058594 16.808594 0.757812 C 19.6875 0.453125 22.566406 0.757812 25.441406 1.058594 C 30.441406 1.515625 35.4375 1.515625 41.34375 1.664062 Z M 30.742188 -35.890625 C 30.589844 -38.464844 30.589844 -41.191406 30.441406 -43.765625 C 30.441406 -44.980469 30.441406 -44.980469 31.652344 -45.128906 C 34.226562 -45.128906 36.953125 -45.28125 39.679688 -45.28125 C 41.34375 -45.28125 43.011719 -44.980469 44.675781 -44.523438 C 46.34375 -43.917969 47.402344 -42.707031 48.160156 -41.34375 C 50.582031 -37.253906 51.339844 -32.863281 50.886719 -28.320312 C 50.734375 -25.746094 49.21875 -23.625 46.796875 -22.109375 C 43.3125 -19.839844 39.527344 -19.082031 35.589844 -18.929688 C 34.527344 -18.777344 33.46875 -18.777344 32.257812 -18.777344 C 31.5 -18.929688 31.347656 -18.929688 31.347656 -19.839844 C 31.199219 -25.140625 30.894531 -30.441406 30.742188 -35.742188 C 30.742188 -35.742188 30.742188 -35.742188 30.742188 -35.890625 Z M 29.53125 -75.875 C 29.378906 -78.75 29.378906 -81.476562 29.378906 -84.355469 C 29.378906 -84.960938 29.378906 -85.261719 30.136719 -85.414062 C 32.257812 -85.566406 34.378906 -85.867188 36.648438 -86.019531 C 38.617188 -86.171875 40.585938 -86.019531 42.554688 -84.960938 C 43.765625 -84.355469 44.828125 -83.445312 45.433594 -82.234375 C 47.25 -78.75 48.160156 -75.117188 48.160156 -71.332031 C 48.160156 -70.574219 48.007812 -69.816406 47.554688 -69.363281 C 46.34375 -67.847656 44.828125 -66.636719 42.859375 -66.484375 C 40.585938 -66.332031 38.164062 -66.179688 35.890625 -66.03125 C 34.378906 -65.878906 32.863281 -65.726562 31.347656 -65.421875 C 29.835938 -65.273438 29.835938 -65.421875 29.683594 -66.9375 C 29.683594 -69.664062 29.683594 -72.542969 29.53125 -75.269531 C 29.53125 -75.417969 29.53125 -75.570312 29.53125 -75.875 Z M 29.53125 -75.875 "/></g></g></g><g fill="rgb(89.7995%, 96.469116%, 98.039246%)" fill-opacity="0.4"><g transform="translate(555.682704, 201.246715)"><g><path d="M 6.359375 -41.496094 C 6.359375 -34.074219 6.210938 -26.503906 6.359375 -19.082031 C 6.359375 -13.328125 6.511719 -7.570312 6.664062 -1.96875 C 6.816406 0.757812 7.570312 1.363281 10.148438 1.363281 C 13.628906 1.210938 17.113281 0.605469 20.597656 0.757812 C 22.566406 0.757812 24.382812 0.605469 26.351562 0.605469 C 29.835938 0.757812 33.316406 0.910156 36.800781 1.058594 C 41.796875 1.210938 46.796875 1.058594 51.640625 0.757812 C 52.550781 0.605469 53.609375 0.453125 54.367188 0.152344 C 55.730469 -0.152344 56.035156 -0.605469 56.1875 -1.96875 C 56.1875 -2.273438 56.1875 -2.421875 56.1875 -2.878906 C 56.335938 -5.453125 56.335938 -8.027344 56.488281 -10.753906 C 56.640625 -12.570312 56.640625 -14.234375 56.640625 -16.054688 C 56.640625 -17.417969 55.882812 -18.628906 54.972656 -18.929688 C 54.066406 -19.082031 53.308594 -19.234375 52.398438 -19.234375 C 50.429688 -19.386719 48.3125 -19.386719 46.191406 -19.535156 C 40.585938 -19.6875 34.984375 -20.445312 29.378906 -20.445312 C 28.773438 -20.445312 28.320312 -20.445312 27.714844 -20.445312 C 27.109375 -20.445312 26.957031 -20.597656 26.957031 -21.203125 C 26.957031 -23.777344 27.109375 -26.503906 27.109375 -29.230469 C 26.957031 -37.558594 26.957031 -46.039062 26.804688 -54.367188 C 26.652344 -58.457031 26.351562 -62.699219 26.503906 -66.785156 C 26.652344 -78.144531 26.199219 -89.351562 25.746094 -100.710938 C 25.746094 -102.375 25.746094 -104.042969 25.746094 -105.707031 C 25.746094 -106.617188 25.140625 -107.375 24.078125 -107.375 C 23.472656 -107.523438 22.867188 -107.523438 22.109375 -107.523438 C 18.023438 -107.375 13.933594 -107.375 9.691406 -107.222656 C 7.722656 -107.222656 6.816406 -107.070312 6.664062 -104.195312 C 6.511719 -101.617188 6.511719 -99.195312 6.511719 -96.46875 C 6.359375 -94.957031 6.359375 -93.441406 6.210938 -91.925781 C 6.210938 -89.351562 6.058594 -86.777344 6.058594 -84.355469 C 6.058594 -80.71875 6.210938 -77.085938 6.359375 -73.449219 C 6.359375 -62.847656 6.359375 -52.097656 6.359375 -41.496094 Z M 6.359375 -41.496094 "/></g></g></g><g fill="rgb(89.7995%, 96.469116%, 98.039246%)" fill-opacity="0.4"><g transform="translate(618.373648, 201.246715)"><g><path d="M 7.421875 -51.035156 C 7.269531 -47.554688 7.117188 -41.796875 6.964844 -36.042969 C 6.816406 -29.683594 6.664062 -23.472656 6.511719 -17.113281 C 6.359375 -12.722656 6.359375 -8.179688 6.210938 -3.632812 C 6.058594 -1.96875 6.964844 -0.757812 7.722656 0.453125 C 7.875 0.757812 8.328125 1.058594 8.785156 1.210938 C 10.296875 1.515625 11.8125 2.121094 13.175781 2.121094 C 16.203125 2.273438 19.234375 2.273438 22.109375 2.121094 C 24.988281 1.96875 27.867188 1.664062 30.742188 1.515625 C 34.679688 1.515625 38.921875 1.515625 42.859375 1.363281 C 45.585938 1.210938 48.160156 0.910156 50.734375 0.910156 C 55.882812 0.757812 60.878906 0.757812 66.03125 0.605469 C 66.785156 0.605469 67.542969 0.605469 68 0 C 69.058594 -1.210938 69.816406 -2.421875 69.816406 -4.089844 C 69.96875 -7.570312 69.363281 -11.054688 69.210938 -14.539062 C 69.210938 -15.75 69.210938 -17.265625 67.847656 -18.171875 C 67.847656 -18.171875 67.847656 -18.324219 67.695312 -18.476562 C 66.9375 -19.839844 65.421875 -20.597656 63.910156 -20.292969 C 63.304688 -20.292969 62.699219 -20.140625 62.09375 -20.292969 C 60.273438 -20.292969 58.304688 -20.445312 56.488281 -20.445312 C 53.609375 -20.292969 50.734375 -19.992188 47.855469 -19.992188 C 42.707031 -19.839844 37.558594 -19.839844 32.558594 -19.839844 C 31.199219 -19.6875 31.199219 -19.839844 31.199219 -21.050781 C 31.199219 -24.230469 31.199219 -27.410156 31.199219 -30.441406 C 31.046875 -36.042969 31.046875 -41.496094 31.046875 -46.949219 C 31.046875 -48.917969 31.199219 -48.917969 33.167969 -48.917969 C 36.648438 -49.21875 40.132812 -49.371094 43.617188 -49.671875 C 46.796875 -49.824219 49.824219 -50.28125 53.003906 -50.582031 C 54.367188 -50.582031 55.882812 -50.582031 57.398438 -50.582031 C 58.609375 -50.734375 59.367188 -51.339844 59.367188 -52.703125 C 59.367188 -56.1875 59.367188 -59.515625 59.214844 -62.847656 C 59.214844 -64.363281 59.0625 -65.878906 58.910156 -67.390625 C 58.761719 -68.453125 58.761719 -68.453125 57.699219 -68.453125 C 56.640625 -68.453125 55.730469 -68.453125 54.671875 -68.453125 C 50.582031 -68.453125 46.34375 -68.605469 42.101562 -68.453125 C 38.769531 -68.453125 35.4375 -68.300781 31.953125 -68.300781 C 30.894531 -68.300781 30.742188 -68.300781 30.742188 -69.511719 C 30.894531 -73.753906 31.046875 -77.992188 31.046875 -82.386719 C 31.199219 -83.292969 31.199219 -83.292969 32.105469 -83.445312 C 35.589844 -83.898438 39.222656 -84.050781 42.707031 -84.203125 C 46.949219 -84.203125 51.035156 -84.203125 55.277344 -84.355469 C 58.304688 -84.503906 61.484375 -84.65625 64.515625 -84.808594 C 65.726562 -84.960938 66.9375 -85.113281 67.695312 -86.171875 C 68.300781 -87.082031 68.753906 -88.140625 68.605469 -89.199219 C 68.453125 -93.894531 68.300781 -98.589844 68.148438 -103.285156 C 68 -105.859375 66.636719 -107.675781 63.910156 -107.828125 C 63.453125 -107.828125 62.847656 -107.828125 62.546875 -107.675781 C 61.03125 -107.375 59.667969 -107.523438 58.304688 -107.523438 C 55.429688 -107.523438 52.550781 -107.675781 49.824219 -107.675781 C 48.007812 -107.675781 46.34375 -107.828125 44.675781 -107.828125 C 38.316406 -107.828125 31.804688 -107.675781 25.441406 -107.675781 C 24.988281 -107.675781 24.535156 -107.523438 23.929688 -107.523438 C 21.203125 -107.523438 18.324219 -107.523438 15.449219 -107.523438 C 14.085938 -107.523438 12.570312 -107.523438 11.207031 -107.523438 C 9.085938 -107.222656 8.027344 -106.164062 8.027344 -104.042969 C 7.875 -103.4375 8.027344 -102.980469 8.027344 -102.527344 C 8.027344 -100.40625 8.179688 -98.289062 8.179688 -96.167969 C 7.875 -81.929688 7.722656 -67.695312 7.421875 -51.035156 Z M 7.421875 -51.035156 "/></g></g></g><g fill="rgb(89.7995%, 96.469116%, 98.039246%)" fill-opacity="0.4"><g transform="translate(694.390223, 201.246715)"><g/></g></g><g fill="rgb(89.7995%, 96.469116%, 98.039246%)" fill-opacity="0.4"><g transform="translate(724.67568, 201.246715)"><g><path d="M 39.074219 1.816406 C 43.617188 1.816406 48.007812 1.363281 52.25 -0.757812 C 53.15625 -1.363281 54.066406 -1.816406 54.972656 -2.273438 C 58.003906 -4.390625 61.183594 -6.359375 63.453125 -9.390625 C 65.574219 -12.265625 67.695312 -14.992188 69.058594 -18.324219 C 71.9375 -24.835938 72.691406 -31.804688 71.332031 -38.921875 C 71.027344 -40.738281 70.269531 -42.707031 69.664062 -44.523438 C 69.210938 -45.585938 68.605469 -46.492188 68.148438 -47.554688 C 67.089844 -49.671875 65.421875 -51.339844 63.605469 -52.703125 C 62.847656 -53.15625 62.394531 -53.914062 61.636719 -54.519531 C 60.730469 -55.277344 59.667969 -56.035156 58.761719 -56.941406 C 56.941406 -58.457031 54.972656 -59.367188 52.855469 -60.425781 C 50.734375 -61.636719 48.460938 -62.546875 46.34375 -63.605469 C 45.734375 -63.910156 44.980469 -64.0625 44.375 -64.515625 C 42.101562 -65.878906 39.527344 -67.242188 37.253906 -68.753906 C 35.742188 -69.664062 34.378906 -70.722656 33.316406 -72.085938 C 32.257812 -73.300781 31.652344 -74.660156 31.5 -76.175781 C 31.347656 -77.386719 31.5 -78.75 31.804688 -79.960938 C 32.257812 -81.324219 33.316406 -82.535156 34.527344 -83.445312 C 35.742188 -84.503906 37.105469 -85.261719 38.617188 -85.261719 C 41.796875 -85.566406 45.128906 -85.566406 48.3125 -84.65625 C 50.128906 -84.203125 51.640625 -83.445312 52.855469 -82.082031 C 53.761719 -81.175781 54.972656 -80.417969 56.035156 -79.507812 C 56.335938 -79.355469 56.640625 -79.054688 56.941406 -79.054688 C 58.457031 -79.054688 59.820312 -79.207031 60.878906 -80.265625 C 61.941406 -81.324219 63 -82.386719 63.910156 -83.445312 C 65.421875 -85.414062 66.9375 -87.230469 68.453125 -89.199219 C 69.511719 -90.5625 69.664062 -91.925781 68.90625 -93.441406 C 68 -94.957031 66.785156 -96.320312 65.574219 -97.679688 C 63.910156 -99.953125 61.789062 -101.46875 59.515625 -102.980469 C 56.792969 -105.101562 53.761719 -106.3125 50.582031 -107.222656 C 48.007812 -107.980469 45.433594 -108.28125 42.859375 -108.28125 C 38.316406 -108.132812 33.921875 -107.675781 29.835938 -105.554688 C 28.925781 -105.101562 28.015625 -104.648438 27.109375 -104.042969 C 23.929688 -102.074219 20.898438 -99.953125 18.476562 -96.925781 C 16.355469 -94.046875 14.234375 -91.320312 12.871094 -87.988281 C 9.996094 -81.476562 9.238281 -74.511719 10.601562 -67.542969 C 11.054688 -65.121094 11.964844 -62.546875 13.023438 -60.273438 C 13.933594 -58.304688 14.992188 -56.488281 16.660156 -54.972656 C 18.171875 -53.761719 19.535156 -52.398438 21.050781 -51.1875 C 22.867188 -49.824219 24.683594 -48.613281 26.503906 -47.25 C 27.410156 -46.644531 28.320312 -46.191406 29.378906 -45.734375 C 30.894531 -44.980469 32.558594 -43.917969 34.226562 -43.3125 C 36.953125 -42.40625 39.222656 -40.890625 41.648438 -39.527344 C 43.3125 -38.617188 44.828125 -37.558594 46.34375 -36.496094 C 48.160156 -35.285156 49.371094 -33.773438 50.128906 -31.804688 C 51.1875 -28.621094 50.429688 -25.746094 48.160156 -23.625 C 46.492188 -21.960938 44.375 -21.203125 42.101562 -20.445312 C 40.285156 -19.992188 38.617188 -19.992188 36.800781 -20.597656 C 34.832031 -21.203125 33.015625 -21.960938 31.046875 -22.714844 C 30.289062 -23.019531 29.683594 -23.472656 28.925781 -23.929688 C 26.652344 -25.140625 25.140625 -27.261719 23.324219 -29.078125 C 22.714844 -29.984375 22.109375 -30.894531 21.355469 -31.804688 C 20.898438 -32.257812 20.445312 -33.015625 19.535156 -32.710938 C 18.628906 -32.558594 17.871094 -32.257812 17.113281 -31.5 C 16.054688 -30.441406 14.992188 -29.378906 13.78125 -28.472656 C 11.359375 -26.804688 9.238281 -24.535156 6.964844 -22.714844 C 6.210938 -22.109375 5.90625 -21.203125 6.210938 -20.292969 C 6.664062 -19.234375 6.964844 -18.023438 7.570312 -17.113281 C 9.539062 -13.78125 11.660156 -10.601562 14.539062 -8.027344 C 15.449219 -7.117188 16.355469 -6.359375 17.417969 -5.601562 C 18.171875 -4.996094 19.234375 -4.390625 20.140625 -3.785156 C 22.867188 -1.816406 25.898438 -0.453125 29.230469 0.453125 C 32.410156 1.210938 35.589844 1.96875 39.074219 1.816406 Z M 39.074219 1.816406 "/></g></g></g><g fill="rgb(89.7995%, 96.469116%, 98.039246%)" fill-opacity="0.4"><g transform="translate(802.812233, 201.246715)"><g><path d="M 28.320312 -47.402344 C 28.167969 -47.402344 28.015625 -47.402344 28.015625 -47.554688 C 27.867188 -47.855469 27.867188 -48.3125 27.867188 -48.613281 C 27.867188 -55.730469 27.867188 -62.699219 27.714844 -69.816406 C 27.714844 -81.628906 27.5625 -93.441406 27.410156 -105.253906 C 27.410156 -107.523438 25.898438 -109.191406 23.777344 -109.191406 C 21.808594 -109.191406 19.992188 -108.886719 18.023438 -108.886719 C 16.808594 -108.738281 15.597656 -108.738281 14.386719 -108.738281 C 13.175781 -108.738281 11.964844 -108.738281 10.753906 -108.738281 C 9.691406 -108.886719 8.785156 -108.585938 7.722656 -108.28125 C 6.664062 -107.828125 6.058594 -107.070312 6.058594 -105.707031 C 6.058594 -104.34375 6.058594 -102.832031 6.210938 -101.46875 C 6.359375 -93.59375 6.511719 -85.71875 6.664062 -77.84375 C 6.664062 -70.875 6.816406 -63.757812 6.664062 -56.640625 C 6.664062 -47.25 6.511719 -37.710938 6.210938 -28.167969 C 6.058594 -20.898438 6.359375 -13.78125 7.117188 -6.511719 C 7.269531 -5.148438 7.570312 -3.785156 8.027344 -2.574219 C 8.328125 -1.664062 8.785156 -0.757812 9.691406 -0.453125 C 11.207031 0.152344 12.722656 0.910156 14.386719 0.757812 C 15.144531 0.757812 15.902344 0.910156 16.660156 0.910156 C 19.535156 1.058594 22.414062 1.210938 25.292969 1.210938 C 26.503906 1.210938 27.410156 0.757812 28.015625 -0.453125 C 28.621094 -1.816406 29.378906 -3.179688 29.835938 -4.542969 C 31.199219 -7.875 32.558594 -11.207031 33.773438 -14.539062 C 35.136719 -18.023438 36.800781 -21.355469 38.617188 -24.683594 C 40.585938 -28.773438 42.554688 -32.863281 44.675781 -36.953125 C 44.828125 -37.253906 45.128906 -37.710938 45.433594 -38.164062 C 45.734375 -37.40625 46.039062 -36.953125 46.34375 -36.347656 C 48.613281 -31.804688 50.886719 -27.261719 53.308594 -22.714844 C 55.429688 -18.628906 56.941406 -14.234375 58.609375 -9.996094 C 59.972656 -6.816406 61.335938 -3.632812 62.699219 -0.453125 C 63.152344 0.757812 64.210938 1.210938 65.273438 1.210938 C 65.726562 1.363281 66.179688 1.363281 66.636719 1.363281 C 72.085938 1.210938 77.539062 0.757812 82.839844 0 C 84.203125 -0.152344 84.65625 -0.757812 84.65625 -2.121094 C 84.808594 -2.421875 84.65625 -2.726562 84.65625 -3.179688 C 84.808594 -11.359375 84.355469 -19.535156 84.960938 -27.714844 C 85.261719 -32.257812 85.261719 -36.800781 85.261719 -41.496094 C 85.261719 -46.949219 85.113281 -52.398438 84.960938 -57.851562 C 84.960938 -66.484375 85.113281 -74.964844 85.414062 -83.445312 C 85.71875 -90.5625 85.71875 -97.832031 85.867188 -104.949219 C 85.867188 -105.859375 85.566406 -106.769531 85.261719 -107.523438 C 84.960938 -108.433594 84.355469 -108.886719 83.292969 -108.886719 C 81.023438 -108.738281 78.597656 -108.738281 76.328125 -108.738281 C 75.117188 -108.738281 74.054688 -108.738281 72.84375 -108.738281 C 71.179688 -108.886719 69.664062 -109.039062 68 -109.191406 C 67.242188 -109.191406 66.636719 -109.191406 66.03125 -109.039062 C 64.515625 -108.886719 63.152344 -108.132812 63.304688 -106.3125 C 63.304688 -105.253906 63.304688 -104.195312 63.152344 -103.132812 C 63.152344 -90.867188 63 -78.449219 62.847656 -66.03125 C 62.847656 -60.273438 62.847656 -54.519531 62.847656 -48.765625 C 62.847656 -48.3125 62.847656 -47.855469 62.847656 -47.402344 C 62.394531 -47.703125 62.09375 -48.007812 62.09375 -48.3125 C 61.636719 -49.523438 61.183594 -50.582031 60.730469 -51.792969 C 59.515625 -54.671875 58.457031 -57.398438 57.246094 -60.125 C 56.335938 -62.242188 55.277344 -64.363281 54.21875 -66.484375 C 52.855469 -69.363281 51.492188 -72.085938 50.128906 -74.964844 C 49.371094 -76.480469 48.613281 -77.992188 47.402344 -79.507812 C 46.492188 -80.71875 44.222656 -80.71875 43.160156 -79.355469 C 42.253906 -78.144531 41.496094 -76.78125 40.738281 -75.269531 C 38.316406 -70.421875 36.042969 -65.421875 33.621094 -60.578125 C 31.953125 -57.246094 30.742188 -53.914062 29.53125 -50.429688 C 29.078125 -49.371094 28.773438 -48.460938 28.320312 -47.402344 Z M 28.320312 -47.402344 "/></g></g></g><g fill="rgb(89.7995%, 96.469116%, 98.039246%)" fill-opacity="0.4"><g transform="translate(894.728671, 201.246715)"><g><path d="M 74.660156 1.363281 C 75.722656 1.664062 76.78125 1.363281 77.84375 1.058594 C 79.207031 0.757812 80.417969 -0.910156 80.265625 -2.273438 C 79.960938 -3.332031 79.660156 -4.390625 79.355469 -5.453125 C 78.902344 -7.117188 78.449219 -8.632812 77.992188 -10.148438 C 77.539062 -12.117188 77.238281 -14.085938 76.78125 -15.902344 C 76.480469 -17.265625 76.175781 -18.476562 75.875 -19.839844 C 75.570312 -22.109375 75.117188 -24.535156 74.660156 -26.804688 C 73.753906 -30.742188 72.691406 -34.832031 71.632812 -38.769531 C 69.664062 -46.039062 67.695312 -53.460938 65.878906 -60.730469 C 64.96875 -63.910156 64.0625 -67.242188 63.152344 -70.269531 C 62.09375 -74.207031 60.730469 -77.992188 59.515625 -81.78125 C 58.910156 -84.203125 58.15625 -86.472656 57.699219 -88.898438 C 57.09375 -91.625 56.640625 -94.5 55.578125 -97.074219 C 55.429688 -97.53125 55.429688 -97.984375 55.277344 -98.4375 C 54.824219 -100.40625 54.367188 -102.375 53.761719 -104.34375 C 53.308594 -106.011719 52.550781 -106.769531 50.734375 -106.617188 C 49.824219 -106.464844 48.917969 -106.617188 48.007812 -106.769531 C 46.949219 -106.917969 45.886719 -106.769531 44.828125 -106.617188 C 42.40625 -106.3125 39.828125 -105.859375 37.253906 -105.554688 C 35.890625 -105.40625 34.527344 -105.253906 33.167969 -105.101562 C 32.410156 -105.101562 31.804688 -104.648438 31.5 -103.890625 C 30.894531 -102.832031 30.289062 -101.769531 29.984375 -100.710938 C 28.925781 -97.074219 28.167969 -93.59375 27.261719 -89.957031 C 26.957031 -88.746094 26.804688 -87.535156 26.351562 -86.472656 C 24.683594 -80.566406 23.019531 -74.660156 21.355469 -68.753906 C 19.992188 -64.210938 18.628906 -59.820312 17.265625 -55.277344 C 15.902344 -50.28125 14.386719 -45.433594 13.023438 -40.585938 C 12.117188 -37.105469 11.359375 -33.621094 10.753906 -30.136719 C 10.148438 -26.804688 9.390625 -23.625 8.480469 -20.445312 C 7.722656 -18.324219 6.964844 -16.054688 6.210938 -13.78125 C 5.300781 -10.296875 4.390625 -6.664062 3.332031 -3.179688 C 2.878906 -1.515625 3.179688 -0.304688 4.695312 0.605469 C 5.148438 0.910156 5.601562 1.210938 6.210938 1.210938 C 7.269531 1.363281 8.328125 1.515625 9.539062 1.515625 C 13.476562 1.363281 17.417969 1.058594 21.355469 0.910156 C 22.566406 0.910156 23.625 0.757812 24.835938 0.605469 C 25.746094 0.605469 26.503906 0 26.804688 -0.910156 C 27.261719 -1.96875 27.714844 -3.027344 28.167969 -4.089844 C 29.078125 -5.90625 29.53125 -7.875 29.835938 -9.84375 C 30.136719 -11.964844 30.136719 -11.507812 31.953125 -11.507812 C 34.679688 -11.507812 37.40625 -11.507812 40.132812 -11.660156 C 42.253906 -11.8125 44.523438 -12.117188 46.796875 -12.265625 C 48.917969 -12.417969 51.035156 -12.417969 53.15625 -12.417969 C 53.761719 -12.570312 54.066406 -12.265625 54.21875 -11.660156 C 54.21875 -10.753906 54.519531 -9.84375 54.671875 -8.933594 C 55.277344 -5.753906 56.640625 -2.726562 58.003906 0.304688 C 58.304688 0.757812 58.761719 1.210938 59.367188 1.515625 C 60.578125 2.421875 61.941406 2.421875 63.304688 2.273438 C 65.273438 2.121094 67.089844 1.96875 68.90625 1.816406 C 69.511719 1.816406 70.117188 1.664062 70.722656 1.664062 C 72.085938 1.515625 73.449219 1.515625 74.660156 1.363281 Z M 41.949219 -65.273438 C 42.40625 -64.210938 42.554688 -63 43.011719 -61.941406 C 43.765625 -59.667969 44.523438 -57.546875 45.28125 -55.429688 C 46.644531 -51.492188 47.554688 -47.25 48.460938 -43.160156 C 48.765625 -41.796875 49.371094 -40.585938 49.671875 -39.222656 C 49.824219 -38.921875 49.824219 -38.769531 49.976562 -38.464844 C 50.429688 -36.953125 50.429688 -36.953125 48.765625 -36.800781 C 45.886719 -36.347656 43.011719 -36.347656 40.132812 -36.042969 C 38.921875 -36.042969 37.859375 -36.042969 36.648438 -36.042969 C 35.890625 -36.042969 35.742188 -36.042969 35.890625 -36.953125 C 36.347656 -39.828125 36.800781 -42.707031 37.40625 -45.585938 C 38.464844 -51.1875 39.679688 -56.792969 40.890625 -62.242188 C 41.042969 -63.304688 41.34375 -64.363281 41.648438 -65.273438 C 41.796875 -65.273438 41.949219 -65.273438 41.949219 -65.273438 Z M 41.949219 -65.273438 "/></g></g></g><g fill="rgb(89.7995%, 96.469116%, 98.039246%)" fill-opacity="0.4"><g transform="translate(978.165195, 201.246715)"><g><path d="M 6.964844 -39.375 C 7.117188 -39.375 7.117188 -39.375 7.117188 -39.375 C 7.117188 -35.4375 7.117188 -31.5 7.117188 -27.714844 C 7.117188 -21.808594 6.964844 -15.902344 6.816406 -9.996094 C 6.816406 -7.117188 6.664062 -4.242188 6.511719 -1.363281 C 6.359375 1.058594 7.570312 1.515625 9.539062 1.515625 C 9.691406 1.515625 9.996094 1.363281 10.296875 1.363281 C 11.054688 1.363281 11.964844 1.210938 12.871094 1.210938 C 13.78125 1.210938 14.839844 1.515625 15.75 1.664062 C 19.234375 1.664062 22.566406 1.816406 26.046875 1.816406 C 27.410156 1.816406 28.320312 0.910156 28.320312 -0.605469 C 28.621094 -6.210938 28.773438 -11.8125 28.925781 -17.566406 C 29.078125 -21.050781 28.925781 -24.683594 29.078125 -28.320312 C 29.078125 -29.378906 29.078125 -29.378906 30.136719 -29.378906 C 31.199219 -29.53125 32.257812 -29.53125 33.167969 -29.683594 C 34.679688 -29.835938 36.042969 -29.984375 37.558594 -30.136719 C 38.921875 -30.136719 40.285156 -30.289062 41.648438 -30.441406 C 42.859375 -30.589844 44.222656 -30.894531 45.433594 -31.199219 C 47.855469 -31.652344 50.128906 -32.257812 52.25 -33.46875 C 53.914062 -34.527344 55.578125 -35.285156 57.398438 -36.042969 C 60.125 -37.105469 62.394531 -38.769531 64.210938 -41.042969 C 66.03125 -43.464844 67.695312 -46.039062 68.90625 -48.765625 C 71.027344 -53.609375 72.238281 -58.457031 72.390625 -63.605469 C 72.691406 -70.722656 72.238281 -77.992188 70.574219 -84.960938 C 69.816406 -88.59375 68.300781 -91.773438 66.9375 -95.105469 C 66.484375 -95.863281 65.878906 -96.46875 65.421875 -97.226562 C 65.121094 -97.679688 64.667969 -98.136719 64.210938 -98.742188 C 61.789062 -101.921875 58.609375 -104.042969 54.671875 -105.101562 C 54.066406 -105.253906 53.308594 -105.40625 52.703125 -105.707031 C 51.035156 -106.3125 49.371094 -106.464844 47.554688 -106.464844 C 46.492188 -106.464844 45.585938 -106.464844 44.675781 -106.464844 C 39.375 -106.617188 34.074219 -106.769531 28.621094 -106.917969 C 26.503906 -106.917969 24.535156 -106.917969 22.414062 -106.917969 C 18.324219 -107.070312 14.234375 -107.070312 10.148438 -107.070312 C 7.722656 -107.070312 6.664062 -106.011719 6.511719 -103.738281 C 6.058594 -99.953125 6.058594 -96.167969 6.058594 -92.53125 C 6.058594 -91.167969 6.058594 -89.957031 6.210938 -88.59375 C 6.359375 -83.898438 6.964844 -79.207031 6.964844 -74.511719 C 7.117188 -62.847656 6.964844 -51.035156 6.964844 -39.375 Z M 29.230469 -68.148438 C 29.230469 -73.90625 29.078125 -79.660156 29.078125 -85.414062 C 29.078125 -86.472656 29.078125 -86.472656 30.136719 -86.472656 C 33.316406 -86.472656 36.496094 -86.625 39.828125 -86.625 C 42.253906 -86.625 44.523438 -85.867188 46.644531 -84.960938 C 47.703125 -84.503906 48.460938 -83.75 48.917969 -82.535156 C 49.976562 -80.417969 50.582031 -78.296875 50.582031 -75.875 C 50.734375 -71.9375 50.886719 -68 50.28125 -64.0625 C 49.976562 -61.183594 48.917969 -58.609375 47.855469 -56.1875 C 47.554688 -55.578125 47.097656 -54.972656 46.949219 -54.21875 C 46.34375 -52.703125 45.128906 -51.640625 43.617188 -51.1875 C 41.949219 -50.582031 40.132812 -50.128906 38.464844 -49.824219 C 35.890625 -49.371094 33.167969 -49.371094 30.589844 -49.371094 C 29.683594 -49.371094 29.53125 -49.371094 29.53125 -50.28125 C 29.378906 -51.1875 29.53125 -52.097656 29.53125 -53.003906 C 29.53125 -58.003906 29.378906 -63.152344 29.378906 -68.148438 C 29.378906 -68.148438 29.378906 -68.148438 29.230469 -68.148438 Z M 29.230469 -68.148438 "/></g></g></g><g fill="rgb(100%, 100%, 100%)" fill-opacity="1"><g transform="translate(32.924855, 194.553622)"><g><path d="M 46.644531 -69.210938 C 46.191406 -70.117188 45.886719 -70.574219 45.585938 -71.179688 C 43.3125 -75.875 41.042969 -80.417969 38.617188 -85.113281 C 36.496094 -89.050781 35.136719 -93.289062 33.316406 -97.378906 C 32.105469 -100.558594 30.589844 -103.738281 29.230469 -107.070312 C 28.773438 -108.132812 27.867188 -108.738281 26.652344 -108.738281 C 25.140625 -108.738281 23.777344 -108.738281 22.261719 -108.738281 C 17.871094 -108.433594 13.328125 -108.132812 8.933594 -107.523438 C 8.027344 -107.375 7.421875 -106.917969 7.421875 -105.859375 C 7.269531 -105.554688 7.269531 -105.253906 7.269531 -104.800781 C 7.269531 -95.710938 7.421875 -86.625 6.964844 -77.386719 C 6.511719 -70.269531 6.816406 -63 6.816406 -55.882812 C 6.816406 -51.792969 6.964844 -47.554688 7.117188 -43.464844 C 7.269531 -37.40625 6.664062 -31.5 6.664062 -25.441406 C 6.511719 -17.871094 6.359375 -10.148438 6.210938 -2.574219 C 6.058594 -1.664062 6.210938 -0.757812 6.664062 0.152344 C 7.117188 0.910156 7.722656 1.363281 8.632812 1.363281 C 11.054688 1.363281 13.476562 1.210938 15.75 1.210938 C 16.808594 1.210938 17.871094 1.210938 18.777344 1.363281 C 21.203125 1.363281 23.625 1.664062 25.898438 1.664062 C 27.714844 1.664062 28.621094 0.605469 28.773438 -1.058594 C 28.773438 -2.726562 28.773438 -4.242188 28.773438 -5.753906 C 28.925781 -17.71875 29.078125 -29.683594 29.230469 -41.648438 C 29.230469 -47.402344 29.230469 -53.15625 29.230469 -58.761719 C 29.230469 -59.214844 29.078125 -59.667969 29.53125 -60.273438 C 29.984375 -58.910156 30.589844 -57.851562 30.894531 -56.640625 C 32.710938 -51.1875 35.285156 -46.191406 37.710938 -41.042969 C 39.074219 -38.164062 40.433594 -35.285156 41.949219 -32.410156 C 42.707031 -30.894531 43.464844 -29.378906 44.675781 -27.867188 C 45.585938 -26.804688 47.855469 -26.652344 48.765625 -28.015625 C 49.21875 -28.621094 49.824219 -29.378906 50.128906 -30.136719 C 51.492188 -32.710938 52.855469 -35.589844 54.21875 -38.316406 C 54.972656 -39.980469 56.035156 -41.648438 56.792969 -43.3125 C 57.546875 -44.675781 58.003906 -46.191406 58.609375 -47.554688 C 59.367188 -49.371094 60.273438 -51.035156 60.878906 -52.703125 C 61.789062 -54.972656 62.546875 -57.09375 63.453125 -59.214844 C 63.453125 -59.515625 63.757812 -59.820312 63.910156 -60.125 C 64.0625 -59.820312 64.210938 -59.515625 64.210938 -59.214844 C 64.210938 -46.796875 64.210938 -34.527344 64.363281 -22.109375 C 64.363281 -15.296875 64.515625 -8.632812 64.667969 -1.816406 C 64.667969 0 66.179688 1.515625 68 1.664062 C 68.90625 1.664062 69.96875 1.664062 70.875 1.515625 C 73.90625 1.515625 76.78125 0.910156 79.660156 1.363281 C 80.566406 1.515625 81.324219 1.515625 82.234375 1.363281 C 83.144531 1.210938 84.203125 0.757812 85.113281 0.304688 C 85.867188 -0.152344 86.019531 -1.058594 86.019531 -1.96875 C 85.867188 -8.027344 85.867188 -14.234375 85.71875 -20.292969 C 85.566406 -25.140625 85.261719 -30.136719 85.261719 -34.984375 C 85.414062 -47.402344 85.566406 -59.820312 85.71875 -72.390625 C 85.71875 -80.566406 86.171875 -88.746094 85.261719 -96.925781 C 84.960938 -99.347656 84.960938 -101.769531 84.355469 -104.042969 C 83.75 -106.769531 81.78125 -107.675781 79.660156 -107.980469 C 75.417969 -108.585938 71.332031 -108.738281 67.089844 -108.738281 C 65.574219 -108.738281 64.515625 -108.132812 63.910156 -106.769531 C 61.789062 -102.679688 60.273438 -98.136719 58.457031 -93.894531 C 57.546875 -91.320312 56.488281 -88.746094 55.277344 -86.324219 C 52.703125 -81.175781 50.128906 -76.175781 47.554688 -71.027344 C 47.402344 -70.574219 47.097656 -69.96875 46.644531 -69.210938 Z M 46.644531 -69.210938 "/></g></g></g><g fill="rgb(100%, 100%, 100%)" fill-opacity="1"><g transform="translate(124.992745, 194.553622)"><g><path d="M 46.644531 -69.210938 C 46.191406 -70.117188 45.886719 -70.574219 45.585938 -71.179688 C 43.3125 -75.875 41.042969 -80.417969 38.617188 -85.113281 C 36.496094 -89.050781 35.136719 -93.289062 33.316406 -97.378906 C 32.105469 -100.558594 30.589844 -103.738281 29.230469 -107.070312 C 28.773438 -108.132812 27.867188 -108.738281 26.652344 -108.738281 C 25.140625 -108.738281 23.777344 -108.738281 22.261719 -108.738281 C 17.871094 -108.433594 13.328125 -108.132812 8.933594 -107.523438 C 8.027344 -107.375 7.421875 -106.917969 7.421875 -105.859375 C 7.269531 -105.554688 7.269531 -105.253906 7.269531 -104.800781 C 7.269531 -95.710938 7.421875 -86.625 6.964844 -77.386719 C 6.511719 -70.269531 6.816406 -63 6.816406 -55.882812 C 6.816406 -51.792969 6.964844 -47.554688 7.117188 -43.464844 C 7.269531 -37.40625 6.664062 -31.5 6.664062 -25.441406 C 6.511719 -17.871094 6.359375 -10.148438 6.210938 -2.574219 C 6.058594 -1.664062 6.210938 -0.757812 6.664062 0.152344 C 7.117188 0.910156 7.722656 1.363281 8.632812 1.363281 C 11.054688 1.363281 13.476562 1.210938 15.75 1.210938 C 16.808594 1.210938 17.871094 1.210938 18.777344 1.363281 C 21.203125 1.363281 23.625 1.664062 25.898438 1.664062 C 27.714844 1.664062 28.621094 0.605469 28.773438 -1.058594 C 28.773438 -2.726562 28.773438 -4.242188 28.773438 -5.753906 C 28.925781 -17.71875 29.078125 -29.683594 29.230469 -41.648438 C 29.230469 -47.402344 29.230469 -53.15625 29.230469 -58.761719 C 29.230469 -59.214844 29.078125 -59.667969 29.53125 -60.273438 C 29.984375 -58.910156 30.589844 -57.851562 30.894531 -56.640625 C 32.710938 -51.1875 35.285156 -46.191406 37.710938 -41.042969 C 39.074219 -38.164062 40.433594 -35.285156 41.949219 -32.410156 C 42.707031 -30.894531 43.464844 -29.378906 44.675781 -27.867188 C 45.585938 -26.804688 47.855469 -26.652344 48.765625 -28.015625 C 49.21875 -28.621094 49.824219 -29.378906 50.128906 -30.136719 C 51.492188 -32.710938 52.855469 -35.589844 54.21875 -38.316406 C 54.972656 -39.980469 56.035156 -41.648438 56.792969 -43.3125 C 57.546875 -44.675781 58.003906 -46.191406 58.609375 -47.554688 C 59.367188 -49.371094 60.273438 -51.035156 60.878906 -52.703125 C 61.789062 -54.972656 62.546875 -57.09375 63.453125 -59.214844 C 63.453125 -59.515625 63.757812 -59.820312 63.910156 -60.125 C 64.0625 -59.820312 64.210938 -59.515625 64.210938 -59.214844 C 64.210938 -46.796875 64.210938 -34.527344 64.363281 -22.109375 C 64.363281 -15.296875 64.515625 -8.632812 64.667969 -1.816406 C 64.667969 0 66.179688 1.515625 68 1.664062 C 68.90625 1.664062 69.96875 1.664062 70.875 1.515625 C 73.90625 1.515625 76.78125 0.910156 79.660156 1.363281 C 80.566406 1.515625 81.324219 1.515625 82.234375 1.363281 C 83.144531 1.210938 84.203125 0.757812 85.113281 0.304688 C 85.867188 -0.152344 86.019531 -1.058594 86.019531 -1.96875 C 85.867188 -8.027344 85.867188 -14.234375 85.71875 -20.292969 C 85.566406 -25.140625 85.261719 -30.136719 85.261719 -34.984375 C 85.414062 -47.402344 85.566406 -59.820312 85.71875 -72.390625 C 85.71875 -80.566406 86.171875 -88.746094 85.261719 -96.925781 C 84.960938 -99.347656 84.960938 -101.769531 84.355469 -104.042969 C 83.75 -106.769531 81.78125 -107.675781 79.660156 -107.980469 C 75.417969 -108.585938 71.332031 -108.738281 67.089844 -108.738281 C 65.574219 -108.738281 64.515625 -108.132812 63.910156 -106.769531 C 61.789062 -102.679688 60.273438 -98.136719 58.457031 -93.894531 C 57.546875 -91.320312 56.488281 -88.746094 55.277344 -86.324219 C 52.703125 -81.175781 50.128906 -76.175781 47.554688 -71.027344 C 47.402344 -70.574219 47.097656 -69.96875 46.644531 -69.210938 Z M 46.644531 -69.210938 "/></g></g></g><g fill="rgb(100%, 100%, 100%)" fill-opacity="1"><g transform="translate(217.060635, 194.553622)"><g/></g></g><g fill="rgb(100%, 100%, 100%)" fill-opacity="1"><g transform="translate(247.346118, 194.553622)"><g><path d="M 39.074219 1.816406 C 43.617188 1.816406 48.007812 1.363281 52.25 -0.757812 C 53.15625 -1.363281 54.066406 -1.816406 54.972656 -2.273438 C 58.003906 -4.390625 61.183594 -6.359375 63.453125 -9.390625 C 65.574219 -12.265625 67.695312 -14.992188 69.058594 -18.324219 C 71.9375 -24.835938 72.691406 -31.804688 71.332031 -38.921875 C 71.027344 -40.738281 70.269531 -42.707031 69.664062 -44.523438 C 69.210938 -45.585938 68.605469 -46.492188 68.148438 -47.554688 C 67.089844 -49.671875 65.421875 -51.339844 63.605469 -52.703125 C 62.847656 -53.15625 62.394531 -53.914062 61.636719 -54.519531 C 60.730469 -55.277344 59.667969 -56.035156 58.761719 -56.941406 C 56.941406 -58.457031 54.972656 -59.367188 52.855469 -60.425781 C 50.734375 -61.636719 48.460938 -62.546875 46.34375 -63.605469 C 45.734375 -63.910156 44.980469 -64.0625 44.375 -64.515625 C 42.101562 -65.878906 39.527344 -67.242188 37.253906 -68.753906 C 35.742188 -69.664062 34.378906 -70.722656 33.316406 -72.085938 C 32.257812 -73.300781 31.652344 -74.660156 31.5 -76.175781 C 31.347656 -77.386719 31.5 -78.75 31.804688 -79.960938 C 32.257812 -81.324219 33.316406 -82.535156 34.527344 -83.445312 C 35.742188 -84.503906 37.105469 -85.261719 38.617188 -85.261719 C 41.796875 -85.566406 45.128906 -85.566406 48.3125 -84.65625 C 50.128906 -84.203125 51.640625 -83.445312 52.855469 -82.082031 C 53.761719 -81.175781 54.972656 -80.417969 56.035156 -79.507812 C 56.335938 -79.355469 56.640625 -79.054688 56.941406 -79.054688 C 58.457031 -79.054688 59.820312 -79.207031 60.878906 -80.265625 C 61.941406 -81.324219 63 -82.386719 63.910156 -83.445312 C 65.421875 -85.414062 66.9375 -87.230469 68.453125 -89.199219 C 69.511719 -90.5625 69.664062 -91.925781 68.90625 -93.441406 C 68 -94.957031 66.785156 -96.320312 65.574219 -97.679688 C 63.910156 -99.953125 61.789062 -101.46875 59.515625 -102.980469 C 56.792969 -105.101562 53.761719 -106.3125 50.582031 -107.222656 C 48.007812 -107.980469 45.433594 -108.28125 42.859375 -108.28125 C 38.316406 -108.132812 33.921875 -107.675781 29.835938 -105.554688 C 28.925781 -105.101562 28.015625 -104.648438 27.109375 -104.042969 C 23.929688 -102.074219 20.898438 -99.953125 18.476562 -96.925781 C 16.355469 -94.046875 14.234375 -91.320312 12.871094 -87.988281 C 9.996094 -81.476562 9.238281 -74.511719 10.601562 -67.542969 C 11.054688 -65.121094 11.964844 -62.546875 13.023438 -60.273438 C 13.933594 -58.304688 14.992188 -56.488281 16.660156 -54.972656 C 18.171875 -53.761719 19.535156 -52.398438 21.050781 -51.1875 C 22.867188 -49.824219 24.683594 -48.613281 26.503906 -47.25 C 27.410156 -46.644531 28.320312 -46.191406 29.378906 -45.734375 C 30.894531 -44.980469 32.558594 -43.917969 34.226562 -43.3125 C 36.953125 -42.40625 39.222656 -40.890625 41.648438 -39.527344 C 43.3125 -38.617188 44.828125 -37.558594 46.34375 -36.496094 C 48.160156 -35.285156 49.371094 -33.773438 50.128906 -31.804688 C 51.1875 -28.621094 50.429688 -25.746094 48.160156 -23.625 C 46.492188 -21.960938 44.375 -21.203125 42.101562 -20.445312 C 40.285156 -19.992188 38.617188 -19.992188 36.800781 -20.597656 C 34.832031 -21.203125 33.015625 -21.960938 31.046875 -22.714844 C 30.289062 -23.019531 29.683594 -23.472656 28.925781 -23.929688 C 26.652344 -25.140625 25.140625 -27.261719 23.324219 -29.078125 C 22.714844 -29.984375 22.109375 -30.894531 21.355469 -31.804688 C 20.898438 -32.257812 20.445312 -33.015625 19.535156 -32.710938 C 18.628906 -32.558594 17.871094 -32.257812 17.113281 -31.5 C 16.054688 -30.441406 14.992188 -29.378906 13.78125 -28.472656 C 11.359375 -26.804688 9.238281 -24.535156 6.964844 -22.714844 C 6.210938 -22.109375 5.90625 -21.203125 6.210938 -20.292969 C 6.664062 -19.234375 6.964844 -18.023438 7.570312 -17.113281 C 9.539062 -13.78125 11.660156 -10.601562 14.539062 -8.027344 C 15.449219 -7.117188 16.355469 -6.359375 17.417969 -5.601562 C 18.171875 -4.996094 19.234375 -4.390625 20.140625 -3.785156 C 22.867188 -1.816406 25.898438 -0.453125 29.230469 0.453125 C 32.410156 1.210938 35.589844 1.96875 39.074219 1.816406 Z M 39.074219 1.816406 "/></g></g></g><g fill="rgb(100%, 100%, 100%)" fill-opacity="1"><g transform="translate(325.48267, 194.553622)"><g><path d="M 40.738281 -48.613281 C 40.890625 -48.613281 40.890625 -48.613281 40.890625 -48.613281 C 40.890625 -49.066406 40.890625 -49.523438 41.042969 -49.976562 C 41.34375 -57.246094 41.648438 -64.515625 41.796875 -71.9375 C 41.949219 -76.328125 41.796875 -80.871094 41.796875 -85.414062 C 41.796875 -85.867188 41.796875 -86.324219 41.796875 -86.625 C 41.796875 -87.230469 41.949219 -87.382812 42.554688 -87.382812 C 43.3125 -87.382812 44.222656 -87.382812 44.980469 -87.382812 C 49.066406 -87.535156 53.308594 -87.988281 57.546875 -87.535156 C 57.851562 -87.535156 58.15625 -87.535156 58.457031 -87.535156 C 59.667969 -87.6875 60.125 -88.292969 60.273438 -89.503906 C 60.273438 -90.5625 60.273438 -91.625 60.273438 -92.53125 C 60.425781 -96.773438 60.878906 -100.863281 60.730469 -104.949219 C 60.730469 -106.617188 60.273438 -106.917969 58.761719 -106.917969 C 56.035156 -106.917969 53.308594 -106.769531 50.582031 -106.769531 C 39.222656 -106.617188 28.015625 -106.617188 16.660156 -107.375 C 13.023438 -107.523438 9.238281 -107.375 5.601562 -107.222656 C 4.390625 -107.070312 3.785156 -106.617188 3.632812 -105.253906 C 3.179688 -100.863281 3.027344 -96.46875 3.027344 -92.078125 C 3.027344 -90.714844 3.179688 -89.503906 3.332031 -88.292969 C 3.484375 -87.535156 3.9375 -87.082031 4.542969 -87.082031 C 4.996094 -87.082031 5.453125 -87.082031 5.90625 -87.082031 C 11.054688 -87.535156 16.203125 -87.382812 21.203125 -87.382812 C 22.109375 -87.382812 22.109375 -87.382812 22.109375 -86.472656 C 22.261719 -84.503906 22.261719 -82.535156 22.261719 -80.417969 C 22.261719 -75.269531 22.261719 -70.117188 21.960938 -64.816406 C 21.503906 -57.246094 21.203125 -49.671875 21.203125 -42.253906 C 21.050781 -33.921875 21.355469 -25.746094 21.355469 -17.566406 C 21.355469 -12.417969 21.355469 -7.269531 21.355469 -2.121094 C 21.355469 -0.304688 22.414062 0.757812 24.230469 1.058594 C 24.988281 1.210938 25.898438 1.210938 26.804688 1.363281 C 30.742188 1.96875 34.527344 1.664062 38.316406 0.910156 C 39.222656 0.605469 39.980469 0 39.980469 -1.058594 C 40.132812 -5.90625 40.433594 -10.753906 40.433594 -15.597656 C 40.585938 -26.652344 40.738281 -37.558594 40.738281 -48.613281 Z M 40.738281 -48.613281 "/></g></g></g><g fill="rgb(100%, 100%, 100%)" fill-opacity="1"><g transform="translate(389.385056, 194.553622)"><g><path d="M 74.660156 1.363281 C 75.722656 1.664062 76.78125 1.363281 77.84375 1.058594 C 79.207031 0.757812 80.417969 -0.910156 80.265625 -2.273438 C 79.960938 -3.332031 79.660156 -4.390625 79.355469 -5.453125 C 78.902344 -7.117188 78.449219 -8.632812 77.992188 -10.148438 C 77.539062 -12.117188 77.238281 -14.085938 76.78125 -15.902344 C 76.480469 -17.265625 76.175781 -18.476562 75.875 -19.839844 C 75.570312 -22.109375 75.117188 -24.535156 74.660156 -26.804688 C 73.753906 -30.742188 72.691406 -34.832031 71.632812 -38.769531 C 69.664062 -46.039062 67.695312 -53.460938 65.878906 -60.730469 C 64.96875 -63.910156 64.0625 -67.242188 63.152344 -70.269531 C 62.09375 -74.207031 60.730469 -77.992188 59.515625 -81.78125 C 58.910156 -84.203125 58.15625 -86.472656 57.699219 -88.898438 C 57.09375 -91.625 56.640625 -94.5 55.578125 -97.074219 C 55.429688 -97.53125 55.429688 -97.984375 55.277344 -98.4375 C 54.824219 -100.40625 54.367188 -102.375 53.761719 -104.34375 C 53.308594 -106.011719 52.550781 -106.769531 50.734375 -106.617188 C 49.824219 -106.464844 48.917969 -106.617188 48.007812 -106.769531 C 46.949219 -106.917969 45.886719 -106.769531 44.828125 -106.617188 C 42.40625 -106.3125 39.828125 -105.859375 37.253906 -105.554688 C 35.890625 -105.40625 34.527344 -105.253906 33.167969 -105.101562 C 32.410156 -105.101562 31.804688 -104.648438 31.5 -103.890625 C 30.894531 -102.832031 30.289062 -101.769531 29.984375 -100.710938 C 28.925781 -97.074219 28.167969 -93.59375 27.261719 -89.957031 C 26.957031 -88.746094 26.804688 -87.535156 26.351562 -86.472656 C 24.683594 -80.566406 23.019531 -74.660156 21.355469 -68.753906 C 19.992188 -64.210938 18.628906 -59.820312 17.265625 -55.277344 C 15.902344 -50.28125 14.386719 -45.433594 13.023438 -40.585938 C 12.117188 -37.105469 11.359375 -33.621094 10.753906 -30.136719 C 10.148438 -26.804688 9.390625 -23.625 8.480469 -20.445312 C 7.722656 -18.324219 6.964844 -16.054688 6.210938 -13.78125 C 5.300781 -10.296875 4.390625 -6.664062 3.332031 -3.179688 C 2.878906 -1.515625 3.179688 -0.304688 4.695312 0.605469 C 5.148438 0.910156 5.601562 1.210938 6.210938 1.210938 C 7.269531 1.363281 8.328125 1.515625 9.539062 1.515625 C 13.476562 1.363281 17.417969 1.058594 21.355469 0.910156 C 22.566406 0.910156 23.625 0.757812 24.835938 0.605469 C 25.746094 0.605469 26.503906 0 26.804688 -0.910156 C 27.261719 -1.96875 27.714844 -3.027344 28.167969 -4.089844 C 29.078125 -5.90625 29.53125 -7.875 29.835938 -9.84375 C 30.136719 -11.964844 30.136719 -11.507812 31.953125 -11.507812 C 34.679688 -11.507812 37.40625 -11.507812 40.132812 -11.660156 C 42.253906 -11.8125 44.523438 -12.117188 46.796875 -12.265625 C 48.917969 -12.417969 51.035156 -12.417969 53.15625 -12.417969 C 53.761719 -12.570312 54.066406 -12.265625 54.21875 -11.660156 C 54.21875 -10.753906 54.519531 -9.84375 54.671875 -8.933594 C 55.277344 -5.753906 56.640625 -2.726562 58.003906 0.304688 C 58.304688 0.757812 58.761719 1.210938 59.367188 1.515625 C 60.578125 2.421875 61.941406 2.421875 63.304688 2.273438 C 65.273438 2.121094 67.089844 1.96875 68.90625 1.816406 C 69.511719 1.816406 70.117188 1.664062 70.722656 1.664062 C 72.085938 1.515625 73.449219 1.515625 74.660156 1.363281 Z M 41.949219 -65.273438 C 42.40625 -64.210938 42.554688 -63 43.011719 -61.941406 C 43.765625 -59.667969 44.523438 -57.546875 45.28125 -55.429688 C 46.644531 -51.492188 47.554688 -47.25 48.460938 -43.160156 C 48.765625 -41.796875 49.371094 -40.585938 49.671875 -39.222656 C 49.824219 -38.921875 49.824219 -38.769531 49.976562 -38.464844 C 50.429688 -36.953125 50.429688 -36.953125 48.765625 -36.800781 C 45.886719 -36.347656 43.011719 -36.347656 40.132812 -36.042969 C 38.921875 -36.042969 37.859375 -36.042969 36.648438 -36.042969 C 35.890625 -36.042969 35.742188 -36.042969 35.890625 -36.953125 C 36.347656 -39.828125 36.800781 -42.707031 37.40625 -45.585938 C 38.464844 -51.1875 39.679688 -56.792969 40.890625 -62.242188 C 41.042969 -63.304688 41.34375 -64.363281 41.648438 -65.273438 C 41.796875 -65.273438 41.949219 -65.273438 41.949219 -65.273438 Z M 41.949219 -65.273438 "/></g></g></g><g fill="rgb(100%, 100%, 100%)" fill-opacity="1"><g transform="translate(472.821581, 194.553622)"><g><path d="M 41.34375 1.664062 C 42.859375 1.664062 45.28125 1.515625 47.554688 1.363281 C 49.371094 1.210938 51.1875 0.910156 52.855469 0.757812 C 56.1875 0.453125 58.910156 -0.757812 61.183594 -3.179688 C 66.03125 -8.179688 68.605469 -14.234375 69.210938 -21.050781 C 69.511719 -23.324219 69.816406 -25.59375 69.96875 -27.867188 C 70.269531 -33.46875 70.117188 -39.074219 68.300781 -44.523438 C 67.089844 -48.160156 65.121094 -51.339844 62.546875 -54.066406 C 62.09375 -54.671875 61.636719 -54.972656 61.03125 -55.429688 C 60.125 -56.1875 59.972656 -56.1875 60.878906 -56.941406 C 61.03125 -57.09375 61.335938 -57.398438 61.636719 -57.546875 C 64.0625 -58.761719 65.574219 -60.878906 66.785156 -63.304688 C 68 -66.332031 68.90625 -69.511719 69.058594 -72.84375 C 69.210938 -74.660156 69.210938 -76.480469 69.363281 -78.449219 C 69.511719 -82.839844 68.605469 -87.230469 67.242188 -91.472656 C 66.03125 -94.5 64.667969 -97.53125 62.546875 -100.257812 C 61.183594 -102.226562 59.820312 -104.195312 57.546875 -105.554688 C 55.730469 -106.769531 53.609375 -107.523438 51.339844 -107.980469 C 50.28125 -108.132812 49.21875 -108.28125 48.3125 -108.433594 C 45.28125 -109.191406 42.101562 -109.039062 39.074219 -109.039062 C 35.890625 -109.039062 32.863281 -108.886719 29.683594 -108.738281 C 28.773438 -108.585938 28.015625 -108.433594 27.261719 -108.433594 C 26.351562 -108.28125 25.59375 -108.132812 24.835938 -108.132812 C 22.566406 -108.28125 20.140625 -108.28125 17.871094 -108.433594 C 16.960938 -108.433594 16.054688 -108.585938 15.144531 -108.585938 C 12.570312 -108.433594 10.148438 -108.132812 7.875 -106.617188 C 6.816406 -106.011719 6.359375 -105.101562 6.359375 -103.890625 C 6.511719 -103.285156 6.511719 -102.832031 6.359375 -102.226562 C 6.058594 -98.136719 6.210938 -94.046875 6.511719 -90.109375 C 6.816406 -88.292969 6.816406 -86.625 6.664062 -84.808594 C 6.511719 -82.234375 6.359375 -79.507812 6.511719 -76.78125 C 6.664062 -70.117188 6.964844 -63.304688 7.117188 -56.640625 C 7.269531 -46.796875 7.421875 -36.953125 7.421875 -27.109375 C 7.421875 -21.503906 7.269531 -15.902344 6.964844 -10.148438 C 6.816406 -7.421875 7.269531 -4.542969 7.421875 -1.816406 C 7.570312 -0.152344 8.632812 0.910156 10.449219 0.910156 C 12.570312 0.910156 14.691406 1.058594 16.808594 0.757812 C 19.6875 0.453125 22.566406 0.757812 25.441406 1.058594 C 30.441406 1.515625 35.4375 1.515625 41.34375 1.664062 Z M 30.742188 -35.890625 C 30.589844 -38.464844 30.589844 -41.191406 30.441406 -43.765625 C 30.441406 -44.980469 30.441406 -44.980469 31.652344 -45.128906 C 34.226562 -45.128906 36.953125 -45.28125 39.679688 -45.28125 C 41.34375 -45.28125 43.011719 -44.980469 44.675781 -44.523438 C 46.34375 -43.917969 47.402344 -42.707031 48.160156 -41.34375 C 50.582031 -37.253906 51.339844 -32.863281 50.886719 -28.320312 C 50.734375 -25.746094 49.21875 -23.625 46.796875 -22.109375 C 43.3125 -19.839844 39.527344 -19.082031 35.589844 -18.929688 C 34.527344 -18.777344 33.46875 -18.777344 32.257812 -18.777344 C 31.5 -18.929688 31.347656 -18.929688 31.347656 -19.839844 C 31.199219 -25.140625 30.894531 -30.441406 30.742188 -35.742188 C 30.742188 -35.742188 30.742188 -35.742188 30.742188 -35.890625 Z M 29.53125 -75.875 C 29.378906 -78.75 29.378906 -81.476562 29.378906 -84.355469 C 29.378906 -84.960938 29.378906 -85.261719 30.136719 -85.414062 C 32.257812 -85.566406 34.378906 -85.867188 36.648438 -86.019531 C 38.617188 -86.171875 40.585938 -86.019531 42.554688 -84.960938 C 43.765625 -84.355469 44.828125 -83.445312 45.433594 -82.234375 C 47.25 -78.75 48.160156 -75.117188 48.160156 -71.332031 C 48.160156 -70.574219 48.007812 -69.816406 47.554688 -69.363281 C 46.34375 -67.847656 44.828125 -66.636719 42.859375 -66.484375 C 40.585938 -66.332031 38.164062 -66.179688 35.890625 -66.03125 C 34.378906 -65.878906 32.863281 -65.726562 31.347656 -65.421875 C 29.835938 -65.273438 29.835938 -65.421875 29.683594 -66.9375 C 29.683594 -69.664062 29.683594 -72.542969 29.53125 -75.269531 C 29.53125 -75.417969 29.53125 -75.570312 29.53125 -75.875 Z M 29.53125 -75.875 "/></g></g></g><g fill="rgb(100%, 100%, 100%)" fill-opacity="1"><g transform="translate(548.989608, 194.553622)"><g><path d="M 6.359375 -41.496094 C 6.359375 -34.074219 6.210938 -26.503906 6.359375 -19.082031 C 6.359375 -13.328125 6.511719 -7.570312 6.664062 -1.96875 C 6.816406 0.757812 7.570312 1.363281 10.148438 1.363281 C 13.628906 1.210938 17.113281 0.605469 20.597656 0.757812 C 22.566406 0.757812 24.382812 0.605469 26.351562 0.605469 C 29.835938 0.757812 33.316406 0.910156 36.800781 1.058594 C 41.796875 1.210938 46.796875 1.058594 51.640625 0.757812 C 52.550781 0.605469 53.609375 0.453125 54.367188 0.152344 C 55.730469 -0.152344 56.035156 -0.605469 56.1875 -1.96875 C 56.1875 -2.273438 56.1875 -2.421875 56.1875 -2.878906 C 56.335938 -5.453125 56.335938 -8.027344 56.488281 -10.753906 C 56.640625 -12.570312 56.640625 -14.234375 56.640625 -16.054688 C 56.640625 -17.417969 55.882812 -18.628906 54.972656 -18.929688 C 54.066406 -19.082031 53.308594 -19.234375 52.398438 -19.234375 C 50.429688 -19.386719 48.3125 -19.386719 46.191406 -19.535156 C 40.585938 -19.6875 34.984375 -20.445312 29.378906 -20.445312 C 28.773438 -20.445312 28.320312 -20.445312 27.714844 -20.445312 C 27.109375 -20.445312 26.957031 -20.597656 26.957031 -21.203125 C 26.957031 -23.777344 27.109375 -26.503906 27.109375 -29.230469 C 26.957031 -37.558594 26.957031 -46.039062 26.804688 -54.367188 C 26.652344 -58.457031 26.351562 -62.699219 26.503906 -66.785156 C 26.652344 -78.144531 26.199219 -89.351562 25.746094 -100.710938 C 25.746094 -102.375 25.746094 -104.042969 25.746094 -105.707031 C 25.746094 -106.617188 25.140625 -107.375 24.078125 -107.375 C 23.472656 -107.523438 22.867188 -107.523438 22.109375 -107.523438 C 18.023438 -107.375 13.933594 -107.375 9.691406 -107.222656 C 7.722656 -107.222656 6.816406 -107.070312 6.664062 -104.195312 C 6.511719 -101.617188 6.511719 -99.195312 6.511719 -96.46875 C 6.359375 -94.957031 6.359375 -93.441406 6.210938 -91.925781 C 6.210938 -89.351562 6.058594 -86.777344 6.058594 -84.355469 C 6.058594 -80.71875 6.210938 -77.085938 6.359375 -73.449219 C 6.359375 -62.847656 6.359375 -52.097656 6.359375 -41.496094 Z M 6.359375 -41.496094 "/></g></g></g><g fill="rgb(100%, 100%, 100%)" fill-opacity="1"><g transform="translate(611.680552, 194.553622)"><g><path d="M 7.421875 -51.035156 C 7.269531 -47.554688 7.117188 -41.796875 6.964844 -36.042969 C 6.816406 -29.683594 6.664062 -23.472656 6.511719 -17.113281 C 6.359375 -12.722656 6.359375 -8.179688 6.210938 -3.632812 C 6.058594 -1.96875 6.964844 -0.757812 7.722656 0.453125 C 7.875 0.757812 8.328125 1.058594 8.785156 1.210938 C 10.296875 1.515625 11.8125 2.121094 13.175781 2.121094 C 16.203125 2.273438 19.234375 2.273438 22.109375 2.121094 C 24.988281 1.96875 27.867188 1.664062 30.742188 1.515625 C 34.679688 1.515625 38.921875 1.515625 42.859375 1.363281 C 45.585938 1.210938 48.160156 0.910156 50.734375 0.910156 C 55.882812 0.757812 60.878906 0.757812 66.03125 0.605469 C 66.785156 0.605469 67.542969 0.605469 68 0 C 69.058594 -1.210938 69.816406 -2.421875 69.816406 -4.089844 C 69.96875 -7.570312 69.363281 -11.054688 69.210938 -14.539062 C 69.210938 -15.75 69.210938 -17.265625 67.847656 -18.171875 C 67.847656 -18.171875 67.847656 -18.324219 67.695312 -18.476562 C 66.9375 -19.839844 65.421875 -20.597656 63.910156 -20.292969 C 63.304688 -20.292969 62.699219 -20.140625 62.09375 -20.292969 C 60.273438 -20.292969 58.304688 -20.445312 56.488281 -20.445312 C 53.609375 -20.292969 50.734375 -19.992188 47.855469 -19.992188 C 42.707031 -19.839844 37.558594 -19.839844 32.558594 -19.839844 C 31.199219 -19.6875 31.199219 -19.839844 31.199219 -21.050781 C 31.199219 -24.230469 31.199219 -27.410156 31.199219 -30.441406 C 31.046875 -36.042969 31.046875 -41.496094 31.046875 -46.949219 C 31.046875 -48.917969 31.199219 -48.917969 33.167969 -48.917969 C 36.648438 -49.21875 40.132812 -49.371094 43.617188 -49.671875 C 46.796875 -49.824219 49.824219 -50.28125 53.003906 -50.582031 C 54.367188 -50.582031 55.882812 -50.582031 57.398438 -50.582031 C 58.609375 -50.734375 59.367188 -51.339844 59.367188 -52.703125 C 59.367188 -56.1875 59.367188 -59.515625 59.214844 -62.847656 C 59.214844 -64.363281 59.0625 -65.878906 58.910156 -67.390625 C 58.761719 -68.453125 58.761719 -68.453125 57.699219 -68.453125 C 56.640625 -68.453125 55.730469 -68.453125 54.671875 -68.453125 C 50.582031 -68.453125 46.34375 -68.605469 42.101562 -68.453125 C 38.769531 -68.453125 35.4375 -68.300781 31.953125 -68.300781 C 30.894531 -68.300781 30.742188 -68.300781 30.742188 -69.511719 C 30.894531 -73.753906 31.046875 -77.992188 31.046875 -82.386719 C 31.199219 -83.292969 31.199219 -83.292969 32.105469 -83.445312 C 35.589844 -83.898438 39.222656 -84.050781 42.707031 -84.203125 C 46.949219 -84.203125 51.035156 -84.203125 55.277344 -84.355469 C 58.304688 -84.503906 61.484375 -84.65625 64.515625 -84.808594 C 65.726562 -84.960938 66.9375 -85.113281 67.695312 -86.171875 C 68.300781 -87.082031 68.753906 -88.140625 68.605469 -89.199219 C 68.453125 -93.894531 68.300781 -98.589844 68.148438 -103.285156 C 68 -105.859375 66.636719 -107.675781 63.910156 -107.828125 C 63.453125 -107.828125 62.847656 -107.828125 62.546875 -107.675781 C 61.03125 -107.375 59.667969 -107.523438 58.304688 -107.523438 C 55.429688 -107.523438 52.550781 -107.675781 49.824219 -107.675781 C 48.007812 -107.675781 46.34375 -107.828125 44.675781 -107.828125 C 38.316406 -107.828125 31.804688 -107.675781 25.441406 -107.675781 C 24.988281 -107.675781 24.535156 -107.523438 23.929688 -107.523438 C 21.203125 -107.523438 18.324219 -107.523438 15.449219 -107.523438 C 14.085938 -107.523438 12.570312 -107.523438 11.207031 -107.523438 C 9.085938 -107.222656 8.027344 -106.164062 8.027344 -104.042969 C 7.875 -103.4375 8.027344 -102.980469 8.027344 -102.527344 C 8.027344 -100.40625 8.179688 -98.289062 8.179688 -96.167969 C 7.875 -81.929688 7.722656 -67.695312 7.421875 -51.035156 Z M 7.421875 -51.035156 "/></g></g></g><g fill="rgb(100%, 100%, 100%)" fill-opacity="1"><g transform="translate(687.697127, 194.553622)"><g/></g></g><g fill="rgb(100%, 100%, 100%)" fill-opacity="1"><g transform="translate(717.982584, 194.553622)"><g><path d="M 39.074219 1.816406 C 43.617188 1.816406 48.007812 1.363281 52.25 -0.757812 C 53.15625 -1.363281 54.066406 -1.816406 54.972656 -2.273438 C 58.003906 -4.390625 61.183594 -6.359375 63.453125 -9.390625 C 65.574219 -12.265625 67.695312 -14.992188 69.058594 -18.324219 C 71.9375 -24.835938 72.691406 -31.804688 71.332031 -38.921875 C 71.027344 -40.738281 70.269531 -42.707031 69.664062 -44.523438 C 69.210938 -45.585938 68.605469 -46.492188 68.148438 -47.554688 C 67.089844 -49.671875 65.421875 -51.339844 63.605469 -52.703125 C 62.847656 -53.15625 62.394531 -53.914062 61.636719 -54.519531 C 60.730469 -55.277344 59.667969 -56.035156 58.761719 -56.941406 C 56.941406 -58.457031 54.972656 -59.367188 52.855469 -60.425781 C 50.734375 -61.636719 48.460938 -62.546875 46.34375 -63.605469 C 45.734375 -63.910156 44.980469 -64.0625 44.375 -64.515625 C 42.101562 -65.878906 39.527344 -67.242188 37.253906 -68.753906 C 35.742188 -69.664062 34.378906 -70.722656 33.316406 -72.085938 C 32.257812 -73.300781 31.652344 -74.660156 31.5 -76.175781 C 31.347656 -77.386719 31.5 -78.75 31.804688 -79.960938 C 32.257812 -81.324219 33.316406 -82.535156 34.527344 -83.445312 C 35.742188 -84.503906 37.105469 -85.261719 38.617188 -85.261719 C 41.796875 -85.566406 45.128906 -85.566406 48.3125 -84.65625 C 50.128906 -84.203125 51.640625 -83.445312 52.855469 -82.082031 C 53.761719 -81.175781 54.972656 -80.417969 56.035156 -79.507812 C 56.335938 -79.355469 56.640625 -79.054688 56.941406 -79.054688 C 58.457031 -79.054688 59.820312 -79.207031 60.878906 -80.265625 C 61.941406 -81.324219 63 -82.386719 63.910156 -83.445312 C 65.421875 -85.414062 66.9375 -87.230469 68.453125 -89.199219 C 69.511719 -90.5625 69.664062 -91.925781 68.90625 -93.441406 C 68 -94.957031 66.785156 -96.320312 65.574219 -97.679688 C 63.910156 -99.953125 61.789062 -101.46875 59.515625 -102.980469 C 56.792969 -105.101562 53.761719 -106.3125 50.582031 -107.222656 C 48.007812 -107.980469 45.433594 -108.28125 42.859375 -108.28125 C 38.316406 -108.132812 33.921875 -107.675781 29.835938 -105.554688 C 28.925781 -105.101562 28.015625 -104.648438 27.109375 -104.042969 C 23.929688 -102.074219 20.898438 -99.953125 18.476562 -96.925781 C 16.355469 -94.046875 14.234375 -91.320312 12.871094 -87.988281 C 9.996094 -81.476562 9.238281 -74.511719 10.601562 -67.542969 C 11.054688 -65.121094 11.964844 -62.546875 13.023438 -60.273438 C 13.933594 -58.304688 14.992188 -56.488281 16.660156 -54.972656 C 18.171875 -53.761719 19.535156 -52.398438 21.050781 -51.1875 C 22.867188 -49.824219 24.683594 -48.613281 26.503906 -47.25 C 27.410156 -46.644531 28.320312 -46.191406 29.378906 -45.734375 C 30.894531 -44.980469 32.558594 -43.917969 34.226562 -43.3125 C 36.953125 -42.40625 39.222656 -40.890625 41.648438 -39.527344 C 43.3125 -38.617188 44.828125 -37.558594 46.34375 -36.496094 C 48.160156 -35.285156 49.371094 -33.773438 50.128906 -31.804688 C 51.1875 -28.621094 50.429688 -25.746094 48.160156 -23.625 C 46.492188 -21.960938 44.375 -21.203125 42.101562 -20.445312 C 40.285156 -19.992188 38.617188 -19.992188 36.800781 -20.597656 C 34.832031 -21.203125 33.015625 -21.960938 31.046875 -22.714844 C 30.289062 -23.019531 29.683594 -23.472656 28.925781 -23.929688 C 26.652344 -25.140625 25.140625 -27.261719 23.324219 -29.078125 C 22.714844 -29.984375 22.109375 -30.894531 21.355469 -31.804688 C 20.898438 -32.257812 20.445312 -33.015625 19.535156 -32.710938 C 18.628906 -32.558594 17.871094 -32.257812 17.113281 -31.5 C 16.054688 -30.441406 14.992188 -29.378906 13.78125 -28.472656 C 11.359375 -26.804688 9.238281 -24.535156 6.964844 -22.714844 C 6.210938 -22.109375 5.90625 -21.203125 6.210938 -20.292969 C 6.664062 -19.234375 6.964844 -18.023438 7.570312 -17.113281 C 9.539062 -13.78125 11.660156 -10.601562 14.539062 -8.027344 C 15.449219 -7.117188 16.355469 -6.359375 17.417969 -5.601562 C 18.171875 -4.996094 19.234375 -4.390625 20.140625 -3.785156 C 22.867188 -1.816406 25.898438 -0.453125 29.230469 0.453125 C 32.410156 1.210938 35.589844 1.96875 39.074219 1.816406 Z M 39.074219 1.816406 "/></g></g></g><g fill="rgb(100%, 100%, 100%)" fill-opacity="1"><g transform="translate(796.119137, 194.553622)"><g><path d="M 28.320312 -47.402344 C 28.167969 -47.402344 28.015625 -47.402344 28.015625 -47.554688 C 27.867188 -47.855469 27.867188 -48.3125 27.867188 -48.613281 C 27.867188 -55.730469 27.867188 -62.699219 27.714844 -69.816406 C 27.714844 -81.628906 27.5625 -93.441406 27.410156 -105.253906 C 27.410156 -107.523438 25.898438 -109.191406 23.777344 -109.191406 C 21.808594 -109.191406 19.992188 -108.886719 18.023438 -108.886719 C 16.808594 -108.738281 15.597656 -108.738281 14.386719 -108.738281 C 13.175781 -108.738281 11.964844 -108.738281 10.753906 -108.738281 C 9.691406 -108.886719 8.785156 -108.585938 7.722656 -108.28125 C 6.664062 -107.828125 6.058594 -107.070312 6.058594 -105.707031 C 6.058594 -104.34375 6.058594 -102.832031 6.210938 -101.46875 C 6.359375 -93.59375 6.511719 -85.71875 6.664062 -77.84375 C 6.664062 -70.875 6.816406 -63.757812 6.664062 -56.640625 C 6.664062 -47.25 6.511719 -37.710938 6.210938 -28.167969 C 6.058594 -20.898438 6.359375 -13.78125 7.117188 -6.511719 C 7.269531 -5.148438 7.570312 -3.785156 8.027344 -2.574219 C 8.328125 -1.664062 8.785156 -0.757812 9.691406 -0.453125 C 11.207031 0.152344 12.722656 0.910156 14.386719 0.757812 C 15.144531 0.757812 15.902344 0.910156 16.660156 0.910156 C 19.535156 1.058594 22.414062 1.210938 25.292969 1.210938 C 26.503906 1.210938 27.410156 0.757812 28.015625 -0.453125 C 28.621094 -1.816406 29.378906 -3.179688 29.835938 -4.542969 C 31.199219 -7.875 32.558594 -11.207031 33.773438 -14.539062 C 35.136719 -18.023438 36.800781 -21.355469 38.617188 -24.683594 C 40.585938 -28.773438 42.554688 -32.863281 44.675781 -36.953125 C 44.828125 -37.253906 45.128906 -37.710938 45.433594 -38.164062 C 45.734375 -37.40625 46.039062 -36.953125 46.34375 -36.347656 C 48.613281 -31.804688 50.886719 -27.261719 53.308594 -22.714844 C 55.429688 -18.628906 56.941406 -14.234375 58.609375 -9.996094 C 59.972656 -6.816406 61.335938 -3.632812 62.699219 -0.453125 C 63.152344 0.757812 64.210938 1.210938 65.273438 1.210938 C 65.726562 1.363281 66.179688 1.363281 66.636719 1.363281 C 72.085938 1.210938 77.539062 0.757812 82.839844 0 C 84.203125 -0.152344 84.65625 -0.757812 84.65625 -2.121094 C 84.808594 -2.421875 84.65625 -2.726562 84.65625 -3.179688 C 84.808594 -11.359375 84.355469 -19.535156 84.960938 -27.714844 C 85.261719 -32.257812 85.261719 -36.800781 85.261719 -41.496094 C 85.261719 -46.949219 85.113281 -52.398438 84.960938 -57.851562 C 84.960938 -66.484375 85.113281 -74.964844 85.414062 -83.445312 C 85.71875 -90.5625 85.71875 -97.832031 85.867188 -104.949219 C 85.867188 -105.859375 85.566406 -106.769531 85.261719 -107.523438 C 84.960938 -108.433594 84.355469 -108.886719 83.292969 -108.886719 C 81.023438 -108.738281 78.597656 -108.738281 76.328125 -108.738281 C 75.117188 -108.738281 74.054688 -108.738281 72.84375 -108.738281 C 71.179688 -108.886719 69.664062 -109.039062 68 -109.191406 C 67.242188 -109.191406 66.636719 -109.191406 66.03125 -109.039062 C 64.515625 -108.886719 63.152344 -108.132812 63.304688 -106.3125 C 63.304688 -105.253906 63.304688 -104.195312 63.152344 -103.132812 C 63.152344 -90.867188 63 -78.449219 62.847656 -66.03125 C 62.847656 -60.273438 62.847656 -54.519531 62.847656 -48.765625 C 62.847656 -48.3125 62.847656 -47.855469 62.847656 -47.402344 C 62.394531 -47.703125 62.09375 -48.007812 62.09375 -48.3125 C 61.636719 -49.523438 61.183594 -50.582031 60.730469 -51.792969 C 59.515625 -54.671875 58.457031 -57.398438 57.246094 -60.125 C 56.335938 -62.242188 55.277344 -64.363281 54.21875 -66.484375 C 52.855469 -69.363281 51.492188 -72.085938 50.128906 -74.964844 C 49.371094 -76.480469 48.613281 -77.992188 47.402344 -79.507812 C 46.492188 -80.71875 44.222656 -80.71875 43.160156 -79.355469 C 42.253906 -78.144531 41.496094 -76.78125 40.738281 -75.269531 C 38.316406 -70.421875 36.042969 -65.421875 33.621094 -60.578125 C 31.953125 -57.246094 30.742188 -53.914062 29.53125 -50.429688 C 29.078125 -49.371094 28.773438 -48.460938 28.320312 -47.402344 Z M 28.320312 -47.402344 "/></g></g></g><g fill="rgb(100%, 100%, 100%)" fill-opacity="1"><g transform="translate(888.035575, 194.553622)"><g><path d="M 74.660156 1.363281 C 75.722656 1.664062 76.78125 1.363281 77.84375 1.058594 C 79.207031 0.757812 80.417969 -0.910156 80.265625 -2.273438 C 79.960938 -3.332031 79.660156 -4.390625 79.355469 -5.453125 C 78.902344 -7.117188 78.449219 -8.632812 77.992188 -10.148438 C 77.539062 -12.117188 77.238281 -14.085938 76.78125 -15.902344 C 76.480469 -17.265625 76.175781 -18.476562 75.875 -19.839844 C 75.570312 -22.109375 75.117188 -24.535156 74.660156 -26.804688 C 73.753906 -30.742188 72.691406 -34.832031 71.632812 -38.769531 C 69.664062 -46.039062 67.695312 -53.460938 65.878906 -60.730469 C 64.96875 -63.910156 64.0625 -67.242188 63.152344 -70.269531 C 62.09375 -74.207031 60.730469 -77.992188 59.515625 -81.78125 C 58.910156 -84.203125 58.15625 -86.472656 57.699219 -88.898438 C 57.09375 -91.625 56.640625 -94.5 55.578125 -97.074219 C 55.429688 -97.53125 55.429688 -97.984375 55.277344 -98.4375 C 54.824219 -100.40625 54.367188 -102.375 53.761719 -104.34375 C 53.308594 -106.011719 52.550781 -106.769531 50.734375 -106.617188 C 49.824219 -106.464844 48.917969 -106.617188 48.007812 -106.769531 C 46.949219 -106.917969 45.886719 -106.769531 44.828125 -106.617188 C 42.40625 -106.3125 39.828125 -105.859375 37.253906 -105.554688 C 35.890625 -105.40625 34.527344 -105.253906 33.167969 -105.101562 C 32.410156 -105.101562 31.804688 -104.648438 31.5 -103.890625 C 30.894531 -102.832031 30.289062 -101.769531 29.984375 -100.710938 C 28.925781 -97.074219 28.167969 -93.59375 27.261719 -89.957031 C 26.957031 -88.746094 26.804688 -87.535156 26.351562 -86.472656 C 24.683594 -80.566406 23.019531 -74.660156 21.355469 -68.753906 C 19.992188 -64.210938 18.628906 -59.820312 17.265625 -55.277344 C 15.902344 -50.28125 14.386719 -45.433594 13.023438 -40.585938 C 12.117188 -37.105469 11.359375 -33.621094 10.753906 -30.136719 C 10.148438 -26.804688 9.390625 -23.625 8.480469 -20.445312 C 7.722656 -18.324219 6.964844 -16.054688 6.210938 -13.78125 C 5.300781 -10.296875 4.390625 -6.664062 3.332031 -3.179688 C 2.878906 -1.515625 3.179688 -0.304688 4.695312 0.605469 C 5.148438 0.910156 5.601562 1.210938 6.210938 1.210938 C 7.269531 1.363281 8.328125 1.515625 9.539062 1.515625 C 13.476562 1.363281 17.417969 1.058594 21.355469 0.910156 C 22.566406 0.910156 23.625 0.757812 24.835938 0.605469 C 25.746094 0.605469 26.503906 0 26.804688 -0.910156 C 27.261719 -1.96875 27.714844 -3.027344 28.167969 -4.089844 C 29.078125 -5.90625 29.53125 -7.875 29.835938 -9.84375 C 30.136719 -11.964844 30.136719 -11.507812 31.953125 -11.507812 C 34.679688 -11.507812 37.40625 -11.507812 40.132812 -11.660156 C 42.253906 -11.8125 44.523438 -12.117188 46.796875 -12.265625 C 48.917969 -12.417969 51.035156 -12.417969 53.15625 -12.417969 C 53.761719 -12.570312 54.066406 -12.265625 54.21875 -11.660156 C 54.21875 -10.753906 54.519531 -9.84375 54.671875 -8.933594 C 55.277344 -5.753906 56.640625 -2.726562 58.003906 0.304688 C 58.304688 0.757812 58.761719 1.210938 59.367188 1.515625 C 60.578125 2.421875 61.941406 2.421875 63.304688 2.273438 C 65.273438 2.121094 67.089844 1.96875 68.90625 1.816406 C 69.511719 1.816406 70.117188 1.664062 70.722656 1.664062 C 72.085938 1.515625 73.449219 1.515625 74.660156 1.363281 Z M 41.949219 -65.273438 C 42.40625 -64.210938 42.554688 -63 43.011719 -61.941406 C 43.765625 -59.667969 44.523438 -57.546875 45.28125 -55.429688 C 46.644531 -51.492188 47.554688 -47.25 48.460938 -43.160156 C 48.765625 -41.796875 49.371094 -40.585938 49.671875 -39.222656 C 49.824219 -38.921875 49.824219 -38.769531 49.976562 -38.464844 C 50.429688 -36.953125 50.429688 -36.953125 48.765625 -36.800781 C 45.886719 -36.347656 43.011719 -36.347656 40.132812 -36.042969 C 38.921875 -36.042969 37.859375 -36.042969 36.648438 -36.042969 C 35.890625 -36.042969 35.742188 -36.042969 35.890625 -36.953125 C 36.347656 -39.828125 36.800781 -42.707031 37.40625 -45.585938 C 38.464844 -51.1875 39.679688 -56.792969 40.890625 -62.242188 C 41.042969 -63.304688 41.34375 -64.363281 41.648438 -65.273438 C 41.796875 -65.273438 41.949219 -65.273438 41.949219 -65.273438 Z M 41.949219 -65.273438 "/></g></g></g><g fill="rgb(100%, 100%, 100%)" fill-opacity="1"><g transform="translate(971.4721, 194.553622)"><g><path d="M 6.964844 -39.375 C 7.117188 -39.375 7.117188 -39.375 7.117188 -39.375 C 7.117188 -35.4375 7.117188 -31.5 7.117188 -27.714844 C 7.117188 -21.808594 6.964844 -15.902344 6.816406 -9.996094 C 6.816406 -7.117188 6.664062 -4.242188 6.511719 -1.363281 C 6.359375 1.058594 7.570312 1.515625 9.539062 1.515625 C 9.691406 1.515625 9.996094 1.363281 10.296875 1.363281 C 11.054688 1.363281 11.964844 1.210938 12.871094 1.210938 C 13.78125 1.210938 14.839844 1.515625 15.75 1.664062 C 19.234375 1.664062 22.566406 1.816406 26.046875 1.816406 C 27.410156 1.816406 28.320312 0.910156 28.320312 -0.605469 C 28.621094 -6.210938 28.773438 -11.8125 28.925781 -17.566406 C 29.078125 -21.050781 28.925781 -24.683594 29.078125 -28.320312 C 29.078125 -29.378906 29.078125 -29.378906 30.136719 -29.378906 C 31.199219 -29.53125 32.257812 -29.53125 33.167969 -29.683594 C 34.679688 -29.835938 36.042969 -29.984375 37.558594 -30.136719 C 38.921875 -30.136719 40.285156 -30.289062 41.648438 -30.441406 C 42.859375 -30.589844 44.222656 -30.894531 45.433594 -31.199219 C 47.855469 -31.652344 50.128906 -32.257812 52.25 -33.46875 C 53.914062 -34.527344 55.578125 -35.285156 57.398438 -36.042969 C 60.125 -37.105469 62.394531 -38.769531 64.210938 -41.042969 C 66.03125 -43.464844 67.695312 -46.039062 68.90625 -48.765625 C 71.027344 -53.609375 72.238281 -58.457031 72.390625 -63.605469 C 72.691406 -70.722656 72.238281 -77.992188 70.574219 -84.960938 C 69.816406 -88.59375 68.300781 -91.773438 66.9375 -95.105469 C 66.484375 -95.863281 65.878906 -96.46875 65.421875 -97.226562 C 65.121094 -97.679688 64.667969 -98.136719 64.210938 -98.742188 C 61.789062 -101.921875 58.609375 -104.042969 54.671875 -105.101562 C 54.066406 -105.253906 53.308594 -105.40625 52.703125 -105.707031 C 51.035156 -106.3125 49.371094 -106.464844 47.554688 -106.464844 C 46.492188 -106.464844 45.585938 -106.464844 44.675781 -106.464844 C 39.375 -106.617188 34.074219 -106.769531 28.621094 -106.917969 C 26.503906 -106.917969 24.535156 -106.917969 22.414062 -106.917969 C 18.324219 -107.070312 14.234375 -107.070312 10.148438 -107.070312 C 7.722656 -107.070312 6.664062 -106.011719 6.511719 -103.738281 C 6.058594 -99.953125 6.058594 -96.167969 6.058594 -92.53125 C 6.058594 -91.167969 6.058594 -89.957031 6.210938 -88.59375 C 6.359375 -83.898438 6.964844 -79.207031 6.964844 -74.511719 C 7.117188 -62.847656 6.964844 -51.035156 6.964844 -39.375 Z M 29.230469 -68.148438 C 29.230469 -73.90625 29.078125 -79.660156 29.078125 -85.414062 C 29.078125 -86.472656 29.078125 -86.472656 30.136719 -86.472656 C 33.316406 -86.472656 36.496094 -86.625 39.828125 -86.625 C 42.253906 -86.625 44.523438 -85.867188 46.644531 -84.960938 C 47.703125 -84.503906 48.460938 -83.75 48.917969 -82.535156 C 49.976562 -80.417969 50.582031 -78.296875 50.582031 -75.875 C 50.734375 -71.9375 50.886719 -68 50.28125 -64.0625 C 49.976562 -61.183594 48.917969 -58.609375 47.855469 -56.1875 C 47.554688 -55.578125 47.097656 -54.972656 46.949219 -54.21875 C 46.34375 -52.703125 45.128906 -51.640625 43.617188 -51.1875 C 41.949219 -50.582031 40.132812 -50.128906 38.464844 -49.824219 C 35.890625 -49.371094 33.167969 -49.371094 30.589844 -49.371094 C 29.683594 -49.371094 29.53125 -49.371094 29.53125 -50.28125 C 29.378906 -51.1875 29.53125 -52.097656 29.53125 -53.003906 C 29.53125 -58.003906 29.378906 -63.152344 29.378906 -68.148438 C 29.378906 -68.148438 29.378906 -68.148438 29.230469 -68.148438 Z M 29.230469 -68.148438 "/></g></g></g></svg>